<?xml version="1.0" encoding="UTF-8"?>
<svg version="1.1" xmlns="http://www.w3.org/2000/svg" width="512" height="512">
<path d="M0 0 C14.01379968 8.03256314 14.01379968 8.03256314 15.875 13.7890625 C15.96910156 14.37945312 16.06320313 14.96984375 16.16015625 15.578125 C21.29592383 16.89580262 24.89220536 16.02483968 29.72265625 14.203125 C41.21724988 10.03160747 52.57387072 8.60252742 64.16015625 13.578125 C68.47545711 16.42313596 71.6799593 19.62925021 74.28515625 24.078125 C77.05998115 28.31090874 81.23987677 29.75461556 85.7175293 31.8125 C91.86477774 34.72312595 96.36446945 38.7824382 101.16015625 43.578125 C101.82917969 44.16464844 102.49820312 44.75117187 103.1875 45.35546875 C108.60312057 50.22151261 111.57481119 55.8138608 112.46875 63.08984375 C112.62853146 69.07694916 111.54343591 74.77329073 110.16015625 80.578125 C108.51015625 80.908125 106.86015625 81.238125 105.16015625 81.578125 C104.50015625 80.258125 103.84015625 78.938125 103.16015625 77.578125 C101.37587694 80.25454396 100.80477741 81.51698548 100.16015625 84.515625 C99.60770885 86.97693538 99.15820066 88.58138431 97.84765625 90.765625 C97.62078125 91.36375 97.39390625 91.961875 97.16015625 92.578125 C97.59714844 93.27808594 98.03414063 93.97804688 98.484375 94.69921875 C100.49201736 98.14824537 101.38645922 101.60670169 102.28515625 105.453125 C102.45402344 106.13503906 102.62289063 106.81695312 102.796875 107.51953125 C107.10222401 125.31723383 104.8612398 142.02253925 95.7265625 158.1015625 C94.57957375 159.95364066 93.37656821 161.77088438 92.16015625 163.578125 C92.82402344 164.08601562 93.48789062 164.59390625 94.171875 165.1171875 C105.24628065 173.7503738 105.24628065 173.7503738 108.16015625 179.578125 C108.83920412 187.56999608 108.21758266 192.90921331 102.97265625 199.203125 C97.52012825 203.80748198 92.55261823 206.25319167 85.31640625 205.90625 C81.29731107 205.29464856 77.72984462 203.59657377 74.3359375 201.39453125 C72.11342252 200.16380795 70.71289065 199.59189875 68.16015625 199.578125 C65.47069255 201.35615934 63.25607341 203.5095702 60.875 205.68359375 C56.16464333 209.6301088 50.69253842 212.2211202 45.22265625 214.953125 C43.7221875 215.71991577 43.7221875 215.71991577 42.19140625 216.50219727 C31.97966511 221.52735248 22.30294997 224.12108016 10.91015625 223.765625 C10.05808594 223.75208984 9.20601562 223.73855469 8.328125 223.72460938 C6.27184771 223.68995302 4.21590585 223.63618487 2.16015625 223.578125 C1.89460937 224.14015625 1.6290625 224.7021875 1.35546875 225.28125 C0.06684591 227.75742722 -1.40114736 230.01657382 -2.96484375 232.328125 C-3.50367188 233.12734375 -4.0425 233.9265625 -4.59765625 234.75 C-5.00757813 235.35328125 -5.4175 235.9565625 -5.83984375 236.578125 C-5.24171875 237.238125 -4.64359375 237.898125 -4.02734375 238.578125 C3.54258788 248.95974553 3.48381716 262.26102944 3.16015625 274.578125 C3.75441406 274.73893555 4.34867188 274.89974609 4.9609375 275.06542969 C7.69645579 275.81099669 10.42824215 276.56946261 13.16015625 277.328125 C14.09472656 277.58078125 15.02929688 277.8334375 15.9921875 278.09375 C21.10786881 279.52470981 25.75149762 281.14352722 30.40625 283.71972656 C34.43415263 285.69106643 38.05553285 285.66684102 42.5 285.5703125 C43.72783203 285.55355469 44.95566406 285.53679687 46.22070312 285.51953125 C48.80157924 285.47532481 51.38233297 285.42326389 53.96289062 285.36328125 C55.19201172 285.34910156 56.42113281 285.33492188 57.6875 285.3203125 C58.80890381 285.2982373 59.93030762 285.27616211 61.08569336 285.25341797 C64.54009036 285.61825145 66.30937544 286.66166975 69.16015625 288.578125 C71.85270616 289.28483228 71.85270616 289.28483228 74.16015625 289.578125 C72.79251847 287.07382826 71.41830932 284.5738501 70.03515625 282.078125 C69.62861816 281.34432617 69.22208008 280.61052734 68.80322266 279.85449219 C66.23354181 275.28729788 63.53977769 271.09790801 60.05859375 267.15625 C59.16015625 265.578125 59.16015625 265.578125 59.24609375 263.5078125 C60.48879954 260.88432251 61.74018036 260.50520159 64.41015625 259.453125 C65.22871094 259.12570312 66.04726563 258.79828125 66.890625 258.4609375 C67.63957031 258.16960937 68.38851563 257.87828125 69.16015625 257.578125 C70.00578125 257.165625 70.85140625 256.753125 71.72265625 256.328125 C75.17721303 255.26518445 78.66264452 254.46528036 82.16015625 255.578125 C87.47543104 260.83386872 90.17978846 267.37268539 93.32226562 274.05859375 C95.73004048 279.05614848 98.34832957 283.3920964 101.77856445 287.75097656 C103.74137541 290.34678451 105.22582124 293.1639644 106.78515625 296.015625 C110.42828268 302.05958571 114.48944089 305.54712236 120.25 309.5234375 C125.99641523 313.58063805 132.0478114 318.67779848 134.16015625 325.578125 C134.181096 328.66150327 133.95399823 331.59375667 133.16015625 334.578125 C132.50015625 335.238125 131.84015625 335.898125 131.16015625 336.578125 C151.39432716 343.32284864 177.78891283 338.84005501 198.16015625 334.578125 C199.61015073 334.28448828 201.06035971 333.9919095 202.51074219 333.70019531 C225.55054997 329.34997001 225.55054997 329.34997001 247.85107422 322.30517578 C252.5521872 320.48130265 257.16306489 319.83686848 262.16015625 320.578125 C264.16015625 322.578125 264.16015625 322.578125 264.17578125 326.3203125 C263.39828024 331.35588194 260.73397953 333.59888334 256.91015625 336.703125 C255.7558438 337.68104813 254.60476335 338.66279968 253.45703125 339.6484375 C252.90208984 340.12313477 252.34714844 340.59783203 251.77539062 341.08691406 C249.29135286 343.38021857 247.25291479 345.92677301 245.16015625 348.578125 C249.38956954 348.43894951 253.61861403 348.29062279 257.84765625 348.140625 C259.04583984 348.10130859 260.24402344 348.06199219 261.47851562 348.02148438 C262.63544922 347.97958984 263.79238281 347.93769531 264.984375 347.89453125 C266.04744873 347.85787354 267.11052246 347.82121582 268.20581055 347.78344727 C270.94571242 347.5930285 273.48211909 347.16666936 276.16015625 346.578125 C280.02021503 346.1979677 283.24173018 346.24415188 286.91015625 347.578125 C291.41832593 351.58538694 292.98723676 355.334975 293.44140625 361.2265625 C293.48799684 367.15521485 293.15166217 372.73740524 292.16015625 378.578125 C292.24265625 379.63 292.32515625 380.681875 292.41015625 381.765625 C292.16015625 384.578125 292.16015625 384.578125 290.03515625 386.390625 C287.05138183 387.62305356 284.34022411 388.09803165 281.16015625 388.578125 C281.14597656 389.81949219 281.13179688 391.06085938 281.1171875 392.33984375 C281.07027425 393.98180743 281.02202693 395.62373337 280.97265625 397.265625 C280.96395508 398.49055664 280.96395508 398.49055664 280.95507812 399.74023438 C280.79983653 404.00075364 280.50877919 406.08617234 277.984375 409.6484375 C274.61594581 411.9499645 273.18579568 412.05669452 269.16015625 411.765625 C263.14840397 411.54135238 257.44980552 411.85647228 251.47265625 412.515625 C243.2429854 413.38782814 235.05628825 413.82915723 226.78515625 414.078125 C218.2796182 414.34201139 209.82372892 414.75185817 201.34765625 415.515625 C200.39818115 415.60054199 199.44870605 415.68545898 198.47045898 415.77294922 C194.078104 416.17825803 189.69584348 416.62548743 185.31640625 417.15234375 C170.53359932 418.8386962 155.801701 418.72904159 140.9440918 418.59228516 C133.29738285 418.52844958 125.8107253 418.50149695 118.20288086 419.35327148 C110.26108732 419.94016002 102.24360065 419.63635752 94.28515625 419.578125 C90.60026331 419.55146887 86.91542195 419.53153779 83.23046875 419.515625 C82.39395782 419.50732666 81.5574469 419.49902832 80.69558716 419.49047852 C76.69737023 419.47365364 73.06856078 419.62439081 69.16015625 420.578125 C59.50838429 421.54884919 59.50838429 421.54884919 55.03515625 418.328125 C52.12254506 414.05629526 52.02247035 410.63438403 52.03515625 405.515625 C52.03257812 404.47277344 52.03 403.42992187 52.02734375 402.35546875 C52.16015625 399.578125 52.16015625 399.578125 53.16015625 396.578125 C52.4846875 396.60132813 51.80921875 396.62453125 51.11328125 396.6484375 C50.22125 396.66648437 49.32921875 396.68453125 48.41015625 396.703125 C47.5284375 396.72632813 46.64671875 396.74953125 45.73828125 396.7734375 C42.87949838 396.55686304 41.47069367 396.27704958 39.16015625 394.578125 C36.58169519 390.32647372 35.25073125 385.92483679 33.97265625 381.140625 C33.62847656 379.88378906 33.28429687 378.62695312 32.9296875 377.33203125 C31.93099955 372.46025907 31.57729099 368.32672077 33.16015625 363.578125 C32.29849854 363.58598022 32.29849854 363.58598022 31.41943359 363.59399414 C28.79135248 363.61491076 26.16328896 363.62783159 23.53515625 363.640625 C22.63152344 363.64900391 21.72789062 363.65738281 20.796875 363.66601562 C16.13111336 363.68304395 11.7500234 363.54641923 7.16015625 362.578125 C7.47726563 363.59132813 7.794375 364.60453125 8.12109375 365.6484375 C12.32599197 380.42861765 11.83376985 401.60864069 8.16015625 416.578125 C6.62440797 418.77465519 5.8325664 419.437702 3.21484375 419.984375 C2.13589844 420.03078125 2.13589844 420.03078125 1.03515625 420.078125 C-2.29874842 420.22467026 -4.91315154 420.95638887 -8.00390625 422.1328125 C-13.1789496 423.92454416 -17.69710555 423.69042062 -23.08984375 423.203125 C-24.82377311 423.06461585 -26.55815388 422.93162517 -28.29296875 422.8046875 C-29.42460449 422.70534912 -29.42460449 422.70534912 -30.57910156 422.60400391 C-32.8434985 422.49202953 -32.8434985 422.49202953 -35.015625 423.06225586 C-39.20240722 423.82700956 -43.32850864 423.65910578 -47.57421875 423.60546875 C-49.5312481 423.59280152 -51.48827946 423.58044217 -53.4453125 423.56835938 C-56.49892624 423.54378448 -59.55243168 423.51603988 -62.60595703 423.48217773 C-73.94278513 423.36452966 -84.96541783 423.51916087 -96.19995117 425.13671875 C-101.11568687 425.73284526 -105.89710177 425.66622435 -110.84765625 425.58203125 C-113.82811012 425.57814032 -116.66355072 425.91188723 -119.609375 426.3515625 C-128.95200784 427.30055147 -138.42315258 426.58784517 -147.71875 425.50390625 C-151.4801347 425.59335094 -153.51140396 426.88426251 -156.83984375 428.578125 C-161.47040521 429.231089 -166.11111897 429.36721064 -170.78125 429.51074219 C-172.69758883 429.57346865 -174.61266245 429.6720243 -176.52734375 429.7734375 C-185.09737841 430.07100815 -188.94026491 428.84288868 -195.52734375 423.328125 C-201.04552574 416.76596264 -202.51317412 410.35055463 -203.93359375 402.04296875 C-204.63721777 398.19326644 -205.70415318 394.48587392 -206.7734375 390.72265625 C-209.17591503 382.03105711 -210.31188919 373.2633338 -211.40234375 364.328125 C-211.61427839 362.65648512 -211.82693415 360.98493651 -212.0402832 359.31347656 C-213.43845825 348.26655296 -214.72857625 337.20641277 -215.85180664 326.12792969 C-216.32570874 321.57046616 -216.89074214 317.14456834 -217.89453125 312.671875 C-219.17627523 306.57827834 -219.24545061 300.53665619 -219.27734375 294.328125 C-219.31021484 293.1834375 -219.34308594 292.03875 -219.37695312 290.859375 C-219.43655075 281.54047345 -219.43655075 281.54047345 -216.6328125 277.91796875 C-213.93992012 275.6619652 -212.03554921 274.44631196 -208.71484375 273.390625 C-207.28785156 272.9265625 -207.28785156 272.9265625 -205.83203125 272.453125 C-201.95053511 271.31806608 -198.06625121 270.20970485 -194.15234375 269.19140625 C-192.36349641 268.7169991 -190.59555821 268.16336315 -188.83984375 267.578125 C-187.44544711 267.51147124 -186.048145 267.49274301 -184.65234375 267.515625 C-183.39421875 267.53625 -182.13609375 267.556875 -180.83984375 267.578125 C-178.44246821 274.11806884 -176.90987494 280.59842611 -175.71484375 287.453125 C-175.54597656 288.36964844 -175.37710938 289.28617187 -175.203125 290.23046875 C-174.05473092 296.65966708 -173.33365162 303.06711836 -172.83984375 309.578125 C-172.74074707 308.99361572 -172.64165039 308.40910645 -172.53955078 307.80688477 C-165.99169873 270.20919065 -155.19091529 225.39339344 -123.63671875 200.8125 C-120.85039129 198.58655124 -118.29758142 196.22313902 -115.71484375 193.765625 C-111.07930547 189.51081536 -106.20229852 185.7444602 -101.08984375 182.078125 C-100.38069824 181.56145264 -99.67155273 181.04478027 -98.94091797 180.51245117 C-94.64441591 177.49302927 -90.97633087 175.70761431 -85.83984375 174.578125 C-85.65421875 173.0003125 -85.65421875 173.0003125 -85.46484375 171.390625 C-84.92843593 168.11853729 -84.2010434 165.57276424 -82.83984375 162.578125 C-83.56171875 162.083125 -84.28359375 161.588125 -85.02734375 161.078125 C-90.17414957 156.5031865 -92.70863537 151.6941028 -94.27734375 145.015625 C-95.42647462 140.2483735 -97.07909731 137.74335074 -100.41015625 134.23828125 C-104.74607838 129.20339899 -105.40962971 122.97214481 -105.171875 116.53515625 C-103.98343629 105.95106094 -99.34941946 97.20603231 -94.10595703 88.11328125 C-91.5299934 83.68638037 -91.5299934 83.68638037 -90.91796875 78.72265625 C-91.89105326 76.31089801 -91.89105326 76.31089801 -93.90234375 73.265625 C-97.65400865 65.90073301 -97.12501201 56.3181474 -94.734375 48.55859375 C-88.95986823 32.34359975 -77.44184854 19.7502633 -63.83984375 9.578125 C-63.2778125 9.05992188 -62.71578125 8.54171875 -62.13671875 8.0078125 C-57.84969834 5.33936102 -52.71990397 4.66485606 -47.83789062 3.56054688 C-42.85346285 2.35444806 -39.72521052 1.07702544 -35.83984375 -2.421875 C-23.04092986 -9.28751755 -12.59294927 -6.30513554 0 0 Z M-26.83984375 6.578125 C-22.54984375 6.578125 -18.25984375 6.578125 -13.83984375 6.578125 C-18.38919405 3.5452248 -22.29049345 3.5452248 -26.83984375 6.578125 Z M-59.05078125 19.49609375 C-60.11330761 20.57829653 -61.16793364 21.66830811 -62.21484375 22.765625 C-62.76011719 23.32443359 -63.30539063 23.88324219 -63.8671875 24.45898438 C-65.19841144 25.82524052 -66.52012685 27.20075057 -67.83984375 28.578125 C-63.85682875 28.578125 -61.17267554 26.8911745 -57.77734375 25.015625 C-57.13990234 24.69271484 -56.50246094 24.36980469 -55.84570312 24.03710938 C-53.31398259 22.63652636 -51.23484191 21.40522786 -49.96142578 18.73876953 C-49.31422801 16.60744445 -49.31422801 16.60744445 -48.83984375 13.578125 C-52.767723 13.578125 -56.37951194 16.90743258 -59.05078125 19.49609375 Z M-27.83984375 21.578125 C-27.83984375 22.568125 -27.83984375 23.558125 -27.83984375 24.578125 C-21.89984375 24.083125 -21.89984375 24.083125 -15.83984375 23.578125 C-16.16984375 22.918125 -16.49984375 22.258125 -16.83984375 21.578125 C-20.46984375 21.578125 -24.09984375 21.578125 -27.83984375 21.578125 Z M41.16015625 21.578125 C41.16015625 21.908125 41.16015625 22.238125 41.16015625 22.578125 C51.10604097 24.29960902 51.10604097 24.29960902 61.16015625 24.578125 C60.3805349 22.46179119 60.3805349 22.46179119 58.58203125 21.95703125 C55.1909828 21.42649625 51.83158307 21.47358478 48.41015625 21.515625 C47.71277344 21.52013672 47.01539063 21.52464844 46.296875 21.52929688 C44.58459822 21.5410248 42.87236592 21.55895847 41.16015625 21.578125 Z M64.16015625 42.578125 C63.50015625 43.238125 62.84015625 43.898125 62.16015625 44.578125 C63.48015625 44.578125 64.80015625 44.578125 66.16015625 44.578125 C66.16015625 43.918125 66.16015625 43.258125 66.16015625 42.578125 C65.50015625 42.578125 64.84015625 42.578125 64.16015625 42.578125 Z M-13.83984375 53.578125 C-14.82984375 55.063125 -14.82984375 55.063125 -15.83984375 56.578125 C-13.3671761 56.23367619 -13.3671761 56.23367619 -10.83984375 55.578125 C-10.50984375 54.918125 -10.17984375 54.258125 -9.83984375 53.578125 C-11.15984375 53.578125 -12.47984375 53.578125 -13.83984375 53.578125 Z M-12.83984375 84.578125 C-14.85910242 85.34413082 -14.85910242 85.34413082 -16.96484375 86.515625 C-17.68929687 86.89589844 -18.41375 87.27617187 -19.16015625 87.66796875 C-19.99160156 88.11849609 -19.99160156 88.11849609 -20.83984375 88.578125 C-19.35484375 89.568125 -19.35484375 89.568125 -17.83984375 90.578125 C-15.52984375 88.928125 -13.21984375 87.278125 -10.83984375 85.578125 C-11.49984375 85.248125 -12.15984375 84.918125 -12.83984375 84.578125 Z M-48.83984375 88.578125 C-50.81984375 89.898125 -52.79984375 91.218125 -54.83984375 92.578125 C-53.84984375 93.568125 -52.85984375 94.558125 -51.83984375 95.578125 C-50.51984375 93.928125 -49.19984375 92.278125 -47.83984375 90.578125 C-48.16984375 89.918125 -48.49984375 89.258125 -48.83984375 88.578125 Z M-81.83984375 106.578125 C-80.83984375 108.578125 -80.83984375 108.578125 -80.83984375 108.578125 Z M-82.83984375 108.578125 C-81.83984375 110.578125 -81.83984375 110.578125 -81.83984375 110.578125 Z M-83.83984375 110.578125 C-85.32484375 114.043125 -85.32484375 114.043125 -86.83984375 117.578125 C-86.17984375 117.578125 -85.51984375 117.578125 -84.83984375 117.578125 C-83.7146829 115.74528057 -83.7146829 115.74528057 -82.83984375 113.578125 C-83.16984375 112.588125 -83.49984375 111.598125 -83.83984375 110.578125 Z M-72.83984375 135.578125 C-71.83984375 137.578125 -71.83984375 137.578125 -71.83984375 137.578125 Z M-73.83984375 137.578125 C-74.16984375 138.238125 -74.49984375 138.898125 -74.83984375 139.578125 C-74.17984375 139.578125 -73.51984375 139.578125 -72.83984375 139.578125 C-73.16984375 138.918125 -73.49984375 138.258125 -73.83984375 137.578125 Z M-79.83984375 146.578125 C-79.17984375 147.238125 -78.51984375 147.898125 -77.83984375 148.578125 C-77.83984375 147.918125 -77.83984375 147.258125 -77.83984375 146.578125 C-78.49984375 146.578125 -79.15984375 146.578125 -79.83984375 146.578125 Z M209.16015625 349.578125 C209.16015625 349.908125 209.16015625 350.238125 209.16015625 350.578125 C211.80015625 350.578125 214.44015625 350.578125 217.16015625 350.578125 C217.16015625 350.248125 217.16015625 349.918125 217.16015625 349.578125 C214.52015625 349.578125 211.88015625 349.578125 209.16015625 349.578125 Z " fill="#010101" transform="translate(218.83984375,73.421875)"/>
<path d="M0 0 C0.99 0.33 1.98 0.66 3 1 C4.12374581 3.78402809 5.10969201 6.53359553 6.0625 9.375 C11.11354755 23.20799793 20.77362358 31.07175623 32.23730469 39.66796875 C33.92807811 40.94565016 35.59592233 42.24755343 37.2578125 43.5625 C47.2634783 51.45420638 57.715097 59.28526893 69.265625 64.76953125 C74.7833702 68.68414777 75.12003226 75.62783281 76.1875 81.8125 C76.36474609 82.79154297 76.54199219 83.77058594 76.72460938 84.77929688 C77.15876193 87.18473671 77.58356826 89.59144024 78 92 C59.78292588 92.16060393 45.29817615 87.01069242 32.05859375 74.1953125 C30.11212493 72.11957155 28.2653913 69.99270595 26.4375 67.8125 C22.46130111 63.07892989 17.50997264 59.75498632 12 57 C12.65226562 57.82242188 13.30453125 58.64484375 13.9765625 59.4921875 C18.01521615 64.6351061 21.95693514 69.67089638 25.1875 75.375 C29.68120153 83.04507139 35.69831363 87.68220124 42.875 92.75 C43.53483887 93.22236084 44.19467773 93.69472168 44.87451172 94.18139648 C52.24503485 99.23203798 59.61068795 101.13586038 68.375 102.1875 C82.28811773 104.11637371 95.96379794 108.4054161 109.16625977 113.1340332 C115.32997929 115.33337481 120.52050424 116.58108634 127.0625 116.3125 C128.21129639 116.29364746 128.21129639 116.29364746 129.38330078 116.27441406 C133.75690838 116.17666951 138.03299357 115.80219627 142.375 115.25 C146.66447368 114.77631579 146.66447368 114.77631579 149.625 116.75 C154.17566079 124.19653584 152.51644176 134.66190731 150.75 142.8125 C149.35582368 148.18073031 147.57089743 153.09023559 145 158 C144.65324219 158.73347656 144.30648437 159.46695313 143.94921875 160.22265625 C141.75850091 164.37071648 140.00049636 166.39255349 135.5 167.9375 C134.01049166 168.33347845 132.50919109 168.68730801 131 169 C130.2587085 169.17128418 129.51741699 169.34256836 128.75366211 169.51904297 C123.25358846 170.47969064 117.63085382 170.18469195 112.0625 170.1875 C110.81919922 170.19974609 109.57589844 170.21199219 108.29492188 170.22460938 C99.69445617 170.2380127 91.471007 169.46910235 83 168 C81.78147339 167.78887573 81.78147339 167.78887573 80.53833008 167.57348633 C63.79750406 164.46215654 47.2775777 159.44359782 33 150 C31.97390625 149.37222656 30.9478125 148.74445313 29.890625 148.09765625 C23.08969909 143.8259304 17.96981866 139.28474985 13 133 C12.29875 132.12472656 11.5975 131.24945313 10.875 130.34765625 C9.52684216 128.65998072 8.18722079 126.96542172 6.859375 125.26171875 C5.02314304 123.02815089 3.07756225 121.0086166 1 119 C-0.485 119.495 -0.485 119.495 -2 120 C-0.2607244 125.00670086 2.45204017 129.3664884 5.1875 133.875 C5.64447266 134.65230469 6.10144531 135.42960938 6.57226562 136.23046875 C11.37870474 144.16342651 17.57056364 149.9307689 24.8125 155.625 C25.36486328 156.07617188 25.91722656 156.52734375 26.48632812 156.9921875 C34.40953157 163.25160816 43.51992258 166.77441349 53 170 C54.35158203 170.47566406 54.35158203 170.47566406 55.73046875 170.9609375 C64.70244174 174.05472129 73.84461172 176.51787251 83 179 C83.04984062 184.22866463 83.08592606 189.45718765 83.10986328 194.68603516 C83.11985378 196.46079928 83.13345081 198.23554723 83.15087891 200.01025391 C83.36263022 222.1444938 83.36263022 222.1444938 81 227 C77.92569002 229.18181016 75.26516494 229.22589984 71.5703125 229.16015625 C70.00603516 229.1437207 70.00603516 229.1437207 68.41015625 229.12695312 C67.32605469 229.10568359 66.24195313 229.08441406 65.125 229.0625 C62.98184169 229.02785014 60.83860385 228.99776262 58.6953125 228.97265625 C57.74672363 228.95468994 56.79813477 228.93672363 55.82080078 228.91821289 C52.9876888 228.93251624 52.9876888 228.93251624 50.18833923 229.49327087 C47.12850291 229.97957678 44.260501 230.15005947 41.16577148 230.18945312 C39.47888466 230.21452942 39.47888466 230.21452942 37.75791931 230.2401123 C35.95769066 230.26047546 35.95769066 230.26047546 34.12109375 230.28125 C32.87626724 230.29965942 31.63144073 230.31806885 30.34889221 230.33703613 C25.70487181 230.40560862 21.06076377 230.46616933 16.41662598 230.52606201 C11.85969974 230.58524825 7.30290412 230.65130865 2.74609375 230.71875 C0.94282875 230.73911316 0.94282875 230.73911316 -0.89686584 230.7598877 C-2.57902443 230.78496399 -2.57902443 230.78496399 -4.29516602 230.81054688 C-5.27856461 230.82307495 -6.2619632 230.83560303 -7.27516174 230.84851074 C-9.94477346 230.99692964 -12.38925893 231.44434134 -15 232 C-19.60555557 232.29599442 -24.21665878 232.42106576 -28.8293457 232.55761719 C-31.0590572 232.62489612 -33.28823949 232.70267435 -35.51757812 232.78125 C-36.94008424 232.8261566 -38.36260992 232.87044838 -39.78515625 232.9140625 C-41.71693726 232.9752124 -41.71693726 232.9752124 -43.68774414 233.03759766 C-46.42732524 233.00650047 -48.41443862 232.76391586 -51 232 C-53.14518471 231.90137082 -55.29117333 231.81947647 -57.4375 231.75 C-63.56862305 231.31059141 -63.56862305 231.31059141 -67.125 228.75 C-67.74375 227.8425 -68.3625 226.935 -69 226 C-69.804375 224.88625 -69.804375 224.88625 -70.625 223.75 C-77.56724327 209.86551345 -78.52399364 194.47140115 -78.375 179.25 C-78.37167664 178.43983429 -78.36835327 177.62966858 -78.3649292 176.79495239 C-78.14502624 130.53582845 -73.17258441 74.68345201 -42 38 C-41.319375 37.18144531 -40.63875 36.36289062 -39.9375 35.51953125 C-36.27840412 31.25296828 -32.41429174 27.43606118 -28.125 23.80859375 C-25.74075879 21.77935904 -23.43588919 19.67479715 -21.125 17.5625 C-16.96284851 13.80375704 -12.6759857 10.25873919 -8.26171875 6.80078125 C-6.29779424 5.23710388 -4.43087314 3.61211592 -2.5625 1.9375 C-1.716875 1.298125 -0.87125 0.65875 0 0 Z " fill="#095EA4" transform="translate(133,254)"/>
<path d="M0 0 C11.58057306 7.12400421 22.1152805 16.18795572 31.78125 25.7109375 C32.59078125 26.50757812 33.4003125 27.30421875 34.234375 28.125 C47.82749293 42.31917417 54.94253682 60.83189448 54.84082031 80.47705078 C54.19566863 104.67023883 47.66002143 123.63932245 32.78125 142.7109375 C32.13285156 143.58621094 31.48445312 144.46148437 30.81640625 145.36328125 C26.40804592 151.1683498 21.79608453 155.60349177 15.78125 159.7109375 C15.03359375 160.24589844 14.2859375 160.78085938 13.515625 161.33203125 C2.72621159 168.49520141 -10.54169285 170.4447573 -23.21875 171.7109375 C-24.09402344 171.80761719 -24.96929687 171.90429688 -25.87109375 172.00390625 C-35.28044026 172.54034049 -44.29781224 169.33635458 -53.21875 166.7109375 C-54.48356201 166.35008057 -54.48356201 166.35008057 -55.77392578 165.98193359 C-73.67970206 160.85469863 -88.95857343 153.11147549 -99.21875 136.7109375 C-101.18676432 132.80172104 -102.75378533 128.83215679 -104.21875 124.7109375 C-104.53972656 123.9065625 -104.86070312 123.1021875 -105.19140625 122.2734375 C-111.89403807 102.82021771 -107.50057945 74.84477212 -101.21875 55.7109375 C-101.00202637 55.03659668 -100.78530273 54.36225586 -100.56201172 53.66748047 C-97.72215921 44.96729629 -94.58231448 37.47308377 -88.21875 30.7109375 C-87.69410156 30.09734375 -87.16945313 29.48375 -86.62890625 28.8515625 C-72.40118643 13.23655934 -53.25672944 3.09474053 -32.5 0.2734375 C-29.1582642 -0.23046354 -29.1582642 -0.23046354 -25.76953125 -1.328125 C-17.59290787 -3.54094057 -7.77876547 -3.65601977 0 0 Z M-14.21875 9.7109375 C-13.88875 10.3709375 -13.55875 11.0309375 -13.21875 11.7109375 C-10.89718403 12.11822978 -8.5618713 12.45532427 -6.21875 12.7109375 C-8.7842094 10.1454781 -10.69561668 10.17047663 -14.21875 9.7109375 Z M-60.21875 65.7109375 C-61.12625 66.64292969 -62.03375 67.57492188 -62.96875 68.53515625 C-65.77688886 72.49872724 -66.05644633 75.22243277 -66.15625 79.9609375 C-66.2190918 81.03988281 -66.2190918 81.03988281 -66.28320312 82.140625 C-66.36137373 83.995874 -66.29985963 85.85581466 -66.21875 87.7109375 C-65.55875 88.3709375 -64.89875 89.0309375 -64.21875 89.7109375 C-63.72375 89.2159375 -63.72375 89.2159375 -63.21875 88.7109375 C-56.07837506 88.47682685 -56.07837506 88.47682685 -53.3828125 89.2109375 C-50.3688632 89.90730124 -47.49617252 89.84263289 -44.40625 89.8359375 C-43.22417969 89.83851562 -42.04210937 89.84109375 -40.82421875 89.84375 C-37.2243685 89.71114447 -33.77270953 89.28430357 -30.21875 88.7109375 C-30.16976562 87.40640625 -30.12078125 86.101875 -30.0703125 84.7578125 C-29.71304391 76.14128617 -29.25867282 67.76420224 -27.62890625 59.27734375 C-27.00695256 55.38569067 -27.08766303 51.64354653 -27.21875 47.7109375 C-40.91954172 45.79282666 -51.887973 56.18811436 -60.21875 65.7109375 Z M-67.21875 48.7109375 C-71.24979054 54.44606224 -73.94320488 59.82299386 -75.21875 66.7109375 C-73.56875 66.7109375 -71.91875 66.7109375 -70.21875 66.7109375 C-70.03699219 65.51597656 -70.03699219 65.51597656 -69.8515625 64.296875 C-68.18711555 53.77244892 -68.18711555 53.77244892 -66.21875 48.7109375 C-66.54875 48.7109375 -66.87875 48.7109375 -67.21875 48.7109375 Z M10.78125 48.7109375 C11.40672836 52.92509793 12.88755325 56.22238752 14.78125 60.0234375 C17.9807919 66.87739594 19.83463077 71.78131866 17.65625 79.2734375 C15.2782089 85.57144588 11.48517787 90.00700963 6.78125 94.7109375 C5.8221875 96.2578125 5.8221875 96.2578125 4.84375 97.8359375 C2.62926946 100.92278916 1.43299658 101.84605015 -2.21875 102.7109375 C-4.21875 101.7109375 -4.21875 101.7109375 -6.21875 98.7109375 C-18.02934681 111.085211 -18.02934681 111.085211 -26.21875 125.7109375 C-27.20875 126.0409375 -28.19875 126.3709375 -29.21875 126.7109375 C-26.77564498 117.10139108 -21.28270051 108.82074112 -14.40625 101.73828125 C-9.07495762 96.11164739 -6.35131833 92.32163313 -6.46875 84.5859375 C-6.53085956 79.58253265 -6.53085956 79.58253265 -9.21875 75.7109375 C-14.94161853 81.26693901 -14.94161853 81.26693901 -17.421875 88.49609375 C-17.07823092 91.12833364 -17.07823092 91.12833364 -16.42578125 93.58203125 C-16.21875 95.7109375 -16.21875 95.7109375 -17.3671875 97.4296875 C-19.59616364 98.97210137 -21.3732603 99.28756841 -24.03125 99.7734375 C-28.51970303 101.01185739 -30.2880064 102.49372387 -32.71875 106.4609375 C-34.79380463 110.45864161 -36.26332859 114.315999 -37.21875 118.7109375 C-38.20875 118.7109375 -39.19875 118.7109375 -40.21875 118.7109375 C-39.93134058 117.33504133 -39.63857258 115.96026428 -39.34375 114.5859375 C-39.18132812 113.82023437 -39.01890625 113.05453125 -38.8515625 112.265625 C-38.13014015 109.35321627 -37.19676666 106.54636396 -36.21875 103.7109375 C-37.26933594 103.65035156 -38.31992187 103.58976562 -39.40234375 103.52734375 C-46.70157152 103.09547277 -53.95986635 102.61829796 -61.21875 101.7109375 C-58.43722566 107.79552199 -53.14689796 110.31051891 -47.34375 113.0859375 C-44.2690648 115.43716736 -43.98403648 118.02364811 -43.21875 121.7109375 C-45.41140359 124.35995679 -46.5804525 125.5980353 -50.0234375 126.20703125 C-55.89013146 126.09507144 -60.09324897 125.86509198 -65.21875 122.7109375 C-66.20875 122.7109375 -67.19875 122.7109375 -68.21875 122.7109375 C-58.56267178 132.83377479 -41.21800017 138.73769745 -27.21875 139.0859375 C-25.54950163 139.00219594 -23.88232585 138.87192871 -22.21875 138.7109375 C-21.00960937 138.60523438 -19.80046875 138.49953125 -18.5546875 138.390625 C-11.36886911 137.61109835 -5.2820473 136.73957128 0.78125 132.7109375 C1.40902344 132.35902344 2.03679687 132.00710937 2.68359375 131.64453125 C13.08306444 125.07536066 20.21857511 111.09492656 23.78125 99.7109375 C27.32470939 83.63799099 25.42697096 68.40310341 16.65625 54.5234375 C14.77302518 51.78003702 13.6265402 50.60779764 10.78125 48.7109375 Z M-18.21875 50.7109375 C-18.91488269 60.39464045 -19.36848506 69.99479573 -19.21875 79.7109375 C-13.76999308 77.89468519 -10.85131684 72.62067466 -8.21875 67.7109375 C-7.85990499 64.51497416 -8.70069574 62.49781324 -10.21875 59.7109375 C-10.60546875 58.97359375 -10.9921875 58.23625 -11.390625 57.4765625 C-13.82717377 52.98627538 -13.82717377 52.98627538 -18.21875 50.7109375 Z " fill="#BC7D3E" transform="translate(456.21875,11.2890625)"/>
<path d="M0 0 C7.86099334 1.57932344 15.5686396 6.39746223 21.5859375 11.51953125 C22.1634375 11.21015625 22.7409375 10.90078125 23.3359375 10.58203125 C25.43497857 9.59081741 27.33667888 9.04404324 29.5859375 8.51953125 C26.00376953 16.17896359 21.95859663 21.57632147 15.5625 27.1328125 C13.27969896 29.42934753 13.27969896 29.42934753 13.296875 32.8125 C13.43996094 34.15248047 13.43996094 34.15248047 13.5859375 35.51953125 C14.1634375 35.56078125 14.7409375 35.60203125 15.3359375 35.64453125 C18.71811477 36.95982241 19.73461208 39.49569973 21.5859375 42.51953125 C23.95921469 44.89280844 24.53567856 44.81531305 27.7734375 44.83203125 C34.98637687 44.62463044 40.35690569 41.66645458 45.59765625 36.86328125 C51.80950667 29.54086426 55.35502208 19.74064832 57.5859375 10.51953125 C58.1619873 10.6788916 58.73803711 10.83825195 59.33154297 11.00244141 C71.20749087 13.72642426 84.59336087 11.51618488 96.3359375 9.26953125 C97.41762207 9.06505371 98.49930664 8.86057617 99.61376953 8.64990234 C105.37821145 7.46550156 110.49124209 5.9381577 115.7487793 3.2734375 C118.28363644 2.23321971 120.0673646 2.54459981 122.5859375 3.51953125 C127.81876003 17.14461634 129.50872616 35.84973503 123.5859375 49.51953125 C121.20599208 54.86174915 118.42885655 59.78785203 115.2734375 64.70703125 C112.64509373 68.96212487 111.94162578 71.57980804 112.5859375 76.51953125 C113.215 76.66648437 113.8440625 76.8134375 114.4921875 76.96484375 C120.87699849 78.63797193 125.74123538 80.9784136 130.5859375 85.51953125 C132.19645305 88.74056235 132.18762529 92.03642751 131.5859375 95.51953125 C128.26482158 99.76317936 125.15183968 102.0421541 119.8984375 103.01953125 C115.70776295 102.3869766 113.48036482 100.55446984 110.22265625 97.9296875 C106.38078521 95.87499795 102.94083714 95.17326602 98.5859375 95.51953125 C95.38294101 96.73813639 92.71220043 98.51972713 89.8984375 100.45703125 C88.33032951 101.47274873 86.76130736 102.48705618 85.19140625 103.5 C84.03390869 104.26256104 84.03390869 104.26256104 82.85302734 105.04052734 C79.52587935 107.21109191 76.1384196 109.26222311 72.7109375 111.26953125 C71.07511719 112.25179687 71.07511719 112.25179687 69.40625 113.25390625 C66.5859375 114.51953125 66.5859375 114.51953125 64.4609375 114.60546875 C61.45830775 112.86644569 60.2254646 110.33988257 58.4609375 107.39453125 C57.77773437 106.27820313 57.09453125 105.161875 56.390625 104.01171875 C53.68287106 98.77203904 52.48592201 93.49002641 51.5234375 87.70703125 C50.93364131 83.98919744 50.93364131 83.98919744 49.5859375 80.51953125 C48.9259375 80.51953125 48.2659375 80.51953125 47.5859375 80.51953125 C44.72440239 88.15798384 43.99719784 96.15425604 46.82421875 103.921875 C48.29759706 106.8795997 49.86046085 109.70251219 51.5859375 112.51953125 C52.42705078 113.92525391 52.42705078 113.92525391 53.28515625 115.359375 C53.71441406 116.07222656 54.14367187 116.78507812 54.5859375 117.51953125 C50.45819853 119.58340073 45.12118894 118.74884595 40.5859375 118.76953125 C39.48636719 118.79015625 38.38679688 118.81078125 37.25390625 118.83203125 C23.37053075 118.89790729 12.6453334 114.67893163 2.6484375 104.95703125 C0.46000699 102.72888331 -1.26644735 100.78339855 -2.79296875 98.0546875 C-4.34737345 95.30355295 -4.34737345 95.30355295 -7.359375 93.27734375 C-11.3475595 90.12280573 -12.63566536 86.07665134 -14.2890625 81.39453125 C-14.59585938 80.58371094 -14.90265625 79.77289063 -15.21875 78.9375 C-17.4140625 73.00819615 -17.4140625 73.00819615 -17.4140625 69.51953125 C-18.0740625 69.51953125 -18.7340625 69.51953125 -19.4140625 69.51953125 C-19.25679687 70.33421875 -19.09953125 71.14890625 -18.9375 71.98828125 C-18.23466188 76.72981602 -18.10218615 81.45400585 -17.984375 86.2421875 C-17.77826587 91.0428126 -16.89768856 94.2918204 -14.4140625 98.51953125 C-13.8159375 99.63328125 -13.2178125 100.74703125 -12.6015625 101.89453125 C-11.882519 103.10891583 -11.15286553 104.31706563 -10.4140625 105.51953125 C-10.04023438 106.14859375 -9.66640625 106.77765625 -9.28125 107.42578125 C-1.81558298 118.69133868 11.83502037 125.26397794 24.5859375 128.51953125 C23.02275342 132.35643762 20.790606 134.91108014 17.5859375 137.51953125 C3.11411031 136.41199345 -15.47901529 120.21415495 -26.4140625 111.51953125 C-27.37441406 110.78476562 -28.33476562 110.05 -29.32421875 109.29296875 C-38.02957628 102.13230327 -42.87801479 93.12767438 -46.4140625 82.51953125 C-45.05569859 79.98254355 -43.65875448 77.61658095 -42.1015625 75.20703125 C-39.23680529 70.73057138 -36.86640672 66.69501204 -35.4140625 61.51953125 C-34.7540625 61.51953125 -34.0940625 61.51953125 -33.4140625 61.51953125 C-33.14142578 59.99585938 -33.14142578 59.99585938 -32.86328125 58.44140625 C-31.49750411 50.92825793 -30.02180084 43.53082029 -27.96484375 36.16796875 C-27.35289173 33.22539095 -27.32176892 30.51687528 -27.4140625 27.51953125 C-25.4140625 28.51953125 -25.4140625 28.51953125 -24.3515625 31.14453125 C-20.83837301 37.26428068 -14.052936 42.16826355 -7.4140625 44.51953125 C-2.60149485 45.21700482 0.64996319 44.99602726 5.0234375 42.76953125 C7.3999769 40.68281373 8.62759281 39.49039979 9.5859375 36.51953125 C9.5859375 35.52953125 9.5859375 34.53953125 9.5859375 33.51953125 C4.4165886 33.92509256 4.4165886 33.92509256 -0.4140625 35.51953125 C-5.36076116 36.00382343 -7.77027971 35.08622862 -11.7265625 32.14453125 C-12.58894531 31.51804688 -13.45132813 30.8915625 -14.33984375 30.24609375 C-16.4140625 28.51953125 -16.4140625 28.51953125 -17.4140625 26.51953125 C-18.13170776 18.4819043 -15.95109907 11.35531911 -10.8515625 5.01953125 C-7.41852505 1.4984672 -5.00229404 -0.10227739 0 0 Z " fill="#D2A173" transform="translate(186.4140625,167.48046875)"/>
<path d="M0 0 C0.99 0.33 1.98 0.66 3 1 C4.12374581 3.78402809 5.10969201 6.53359553 6.0625 9.375 C11.11354755 23.20799793 20.77362358 31.07175623 32.23730469 39.66796875 C33.92807811 40.94565016 35.59592233 42.24755343 37.2578125 43.5625 C47.2634783 51.45420638 57.715097 59.28526893 69.265625 64.76953125 C74.7833702 68.68414777 75.12003226 75.62783281 76.1875 81.8125 C76.36474609 82.79154297 76.54199219 83.77058594 76.72460938 84.77929688 C77.15876193 87.18473671 77.58356826 89.59144024 78 92 C59.78292588 92.16060393 45.29817615 87.01069242 32.05859375 74.1953125 C30.11212493 72.11957155 28.2653913 69.99270595 26.4375 67.8125 C22.46130111 63.07892989 17.50997264 59.75498632 12 57 C12.65226562 57.82242188 13.30453125 58.64484375 13.9765625 59.4921875 C18.01521615 64.6351061 21.95693514 69.67089638 25.1875 75.375 C29.68120153 83.04507139 35.69831363 87.68220124 42.875 92.75 C43.53483887 93.22236084 44.19467773 93.69472168 44.87451172 94.18139648 C52.24503485 99.23203798 59.61068795 101.13586038 68.375 102.1875 C82.28811773 104.11637371 95.96379794 108.4054161 109.16625977 113.1340332 C115.32997929 115.33337481 120.52050424 116.58108634 127.0625 116.3125 C128.21129639 116.29364746 128.21129639 116.29364746 129.38330078 116.27441406 C133.75690838 116.17666951 138.03299357 115.80219627 142.375 115.25 C146.66447368 114.77631579 146.66447368 114.77631579 149.625 116.75 C154.17566079 124.19653584 152.51644176 134.66190731 150.75 142.8125 C149.35582368 148.18073031 147.57089743 153.09023559 145 158 C144.65324219 158.73347656 144.30648437 159.46695313 143.94921875 160.22265625 C141.75850091 164.37071648 140.00049636 166.39255349 135.5 167.9375 C134.01049166 168.33347845 132.50919109 168.68730801 131 169 C130.2587085 169.17128418 129.51741699 169.34256836 128.75366211 169.51904297 C123.25358846 170.47969064 117.63085382 170.18469195 112.0625 170.1875 C110.81919922 170.19974609 109.57589844 170.21199219 108.29492188 170.22460938 C96.5889874 170.24285239 85.36726098 168.74382162 74 166 C77.70817172 164.77935495 81.06814673 165.071352 84.9375 165.25 C92.66811315 165.43843548 99.08339212 163.54973655 106 160 C106.66 159.34 107.32 158.68 108 158 C107.95174995 155.94119032 107.95174995 155.94119032 107 154 C105.47810418 152.84657613 105.47810418 152.84657613 103.4375 152.125 C102.6228125 151.79757812 101.808125 151.47015625 100.96875 151.1328125 C99.9890625 150.75898438 99.009375 150.38515625 98 150 C96.22109375 149.28457031 96.22109375 149.28457031 94.40625 148.5546875 C86.25462196 145.33059708 78.125242 142.88489382 69.59765625 140.87890625 C65.28954194 139.82643533 61.17377103 138.49063251 57 137 C56.505 134.525 56.505 134.525 56 132 C55.4225 132.165 54.845 132.33 54.25 132.5 C52 133 52 133 48 133 C47.34 130.69 46.68 128.38 46 126 C42.99740483 125.66781808 42.99740483 125.66781808 41.3125 127.5 C40.879375 127.995 40.44625 128.49 40 129 C38.46819866 127.86887104 36.9502213 126.71902165 35.4375 125.5625 C34.59058594 124.92441406 33.74367187 124.28632813 32.87109375 123.62890625 C25.74225979 117.10141611 21.61248853 109.8711194 18.125 100.9375 C17.73570312 99.99583984 17.34640625 99.05417969 16.9453125 98.08398438 C15.25506895 93.86717885 13.83976687 89.9759178 13.3671875 85.44140625 C13.35786212 81.93913173 13.35786212 81.93913173 11 80 C8.28545044 79.67247766 5.74769241 79.8691575 3 80 C1.64044628 81.13404639 1.64044628 81.13404639 1.8671875 84.1328125 C1.86976563 85.45023437 1.87234375 86.76765625 1.875 88.125 C1.87242187 89.42695313 1.86984375 90.72890625 1.8671875 92.0703125 C1.99402548 95.82322441 2.3950742 99.30323122 3 103 C2.34 103 1.68 103 1 103 C0.53815593 101.06333386 0.08075974 99.125607 -0.375 97.1875 C-0.75785156 95.56908203 -0.75785156 95.56908203 -1.1484375 93.91796875 C-1.4372999 92.61307776 -1.72060926 91.30695172 -2 90 C-2.17208984 89.19763916 -2.34417969 88.39527832 -2.52148438 87.56860352 C-3.98074165 80.2395774 -4.48884454 73.02227946 -4.75 65.5625 C-4.80542969 64.42490234 -4.86085937 63.28730469 -4.91796875 62.11523438 C-5.1718306 55.37250974 -4.76768702 49.16439506 -3.47070312 42.53881836 C-2.56532816 37.65552256 -2.21487022 33.35176528 -5 29 C0 24 0 24 2.3125 22.1875 C4.82439967 18.93133376 4.43119954 15.97029009 4 12 C3.58268982 9.64470719 3.58268982 9.64470719 3 8 C0.69 7.34 -1.62 6.68 -4 6 C-2.84826645 3.53199953 -1.95216435 1.95216435 0 0 Z " fill="#0081C8" transform="translate(133,254)"/>
<path d="M0 0 C11.58057306 7.12400421 22.1152805 16.18795572 31.78125 25.7109375 C32.59078125 26.50757812 33.4003125 27.30421875 34.234375 28.125 C47.82749293 42.31917417 54.94253682 60.83189448 54.84082031 80.47705078 C54.19566863 104.67023883 47.66002143 123.63932245 32.78125 142.7109375 C32.13285156 143.58621094 31.48445312 144.46148437 30.81640625 145.36328125 C26.40804592 151.1683498 21.79608453 155.60349177 15.78125 159.7109375 C15.03359375 160.24589844 14.2859375 160.78085938 13.515625 161.33203125 C2.72621159 168.49520141 -10.54169285 170.4447573 -23.21875 171.7109375 C-24.09402344 171.80761719 -24.96929687 171.90429688 -25.87109375 172.00390625 C-35.28044026 172.54034049 -44.29781224 169.33635458 -53.21875 166.7109375 C-54.48356201 166.35008057 -54.48356201 166.35008057 -55.77392578 165.98193359 C-73.67970206 160.85469863 -88.95857343 153.11147549 -99.21875 136.7109375 C-101.18676432 132.80172104 -102.75378533 128.83215679 -104.21875 124.7109375 C-104.53972656 123.9065625 -104.86070312 123.1021875 -105.19140625 122.2734375 C-111.89403807 102.82021771 -107.50057945 74.84477212 -101.21875 55.7109375 C-101.00202637 55.03659668 -100.78530273 54.36225586 -100.56201172 53.66748047 C-97.72215921 44.96729629 -94.58231448 37.47308377 -88.21875 30.7109375 C-87.69410156 30.09734375 -87.16945313 29.48375 -86.62890625 28.8515625 C-72.40118643 13.23655934 -53.25672944 3.09474053 -32.5 0.2734375 C-29.1582642 -0.23046354 -29.1582642 -0.23046354 -25.76953125 -1.328125 C-17.59290787 -3.54094057 -7.77876547 -3.65601977 0 0 Z M-34.140625 8.66015625 C-51.60022692 9.0040575 -71.09716156 24.80261834 -82.625 36.73828125 C-92.05448982 48.40958605 -95.49374804 63.65331406 -95.58984375 78.34765625 C-95.59887222 79.23016556 -95.6079007 80.11267487 -95.61720276 81.02192688 C-95.63160168 82.87648178 -95.64056592 84.73108629 -95.64428711 86.58569336 C-95.6561507 89.37508871 -95.7054111 92.16224341 -95.75585938 94.95117188 C-95.89120042 109.92433621 -93.71883344 122.59191214 -84.21875 134.7109375 C-83.166875 136.226875 -83.166875 136.226875 -82.09375 137.7734375 C-73.6720059 147.27421756 -62.34723177 150.79952434 -50.54345703 154.05712891 C-48.38659356 154.6637326 -46.25509506 155.32192745 -44.12109375 156.00390625 C-35.63947861 158.57382687 -28.94510435 158.83961567 -20.21875 157.7109375 C-17.80278638 157.55388678 -15.38606128 157.40816439 -12.96875 157.2734375 C-10.71800046 157.09516031 -8.46787449 156.90866273 -6.21875 156.7109375 C-5.44144531 156.659375 -4.66414063 156.6078125 -3.86328125 156.5546875 C6.5675996 155.14563793 17.53018525 146.1731218 23.953125 138.2421875 C39.06892586 117.31261707 46.6635706 96.50641768 43.34765625 70.1796875 C42.69507596 66.90572537 41.8771003 63.86204012 40.78125 60.7109375 C40.43964844 59.68613281 40.09804688 58.66132812 39.74609375 57.60546875 C32.31990016 37.74354758 13.10413295 20.43034944 -5.9453125 11.54296875 C-15.50530041 8.04421029 -24.19192374 8.83306149 -34.140625 8.66015625 Z " fill="#010100" transform="translate(456.21875,11.2890625)"/>
<path d="M0 0 C1.00675781 -0.01160156 2.01351562 -0.02320313 3.05078125 -0.03515625 C15.14727885 0.01240534 23.90965373 5.74290455 32.5 14.125 C36.62981226 18.77103879 39.10489231 23.47552781 41.625 29.125 C42.16447266 30.28515625 42.16447266 30.28515625 42.71484375 31.46875 C46.05630372 38.92758949 47.54104519 45.27200866 44.58984375 53.1328125 C42.4311266 57.5740442 39.45067587 61.45837583 35.93359375 64.9140625 C34.26819392 66.51326391 34.26819392 66.51326391 32.5625 69.375 C29.40625 73.96590909 29.40625 73.96590909 26.5 75.375 C23.8125 74.6875 23.8125 74.6875 21.5 73.375 C21.17 72.715 20.84 72.055 20.5 71.375 C9.25606985 84.00824408 9.25606985 84.00824408 0.5 98.375 C-0.49 98.375 -1.48 98.375 -2.5 98.375 C-2.11990165 92.26675286 -0.84351827 88.5099393 2.9375 83.625 C3.37690918 83.02357178 3.81631836 82.42214355 4.26904297 81.80249023 C6.48943196 78.81083726 8.79103353 76.00538403 11.38671875 73.33203125 C16.77350252 67.63787037 19.33649364 63.92911536 19.125 56.125 C18.96658182 53.87093557 18.77574628 51.61773645 18.5 49.375 C16.39991965 49.15114946 16.39991965 49.15114946 14.95703125 50.7734375 C11.47942675 54.86955145 11.47942675 54.86955145 10.47265625 59.9921875 C10.73692471 61.72147818 11.01009151 63.44943698 11.29296875 65.17578125 C11.5 67.375 11.5 67.375 10.1875 69.8125 C7.5 71.375 7.5 71.375 5.28515625 71.70703125 C1.51276461 72.3289818 -1.37287852 72.83596041 -3.74121094 76.06982422 C-6.39708051 80.65376344 -8.4843994 85.48238291 -10.5 90.375 C-11.49 90.375 -12.48 90.375 -13.5 90.375 C-14.00610724 84.30171312 -12.54157942 80.60271463 -9.5 75.375 C-10.5621875 75.38660156 -11.624375 75.39820312 -12.71875 75.41015625 C-26.65671621 75.5155473 -26.65671621 75.5155473 -33.5 74.375 C-30.96067529 78.48628763 -28.147162 80.20210067 -23.9375 82.3125 C-20.3618404 84.1768145 -18.65515463 85.16952495 -16.1875 88.4375 C-15.36702172 91.94317994 -15.63468329 93.32266356 -17.5 96.375 C-22.17384628 99.49089752 -27.02490248 98.84699117 -32.5 98.375 C-40.2231917 95.56656665 -44.57581448 90.6028769 -48.19969177 83.38575745 C-51.36376113 76.4224072 -51.3904123 69.59773768 -51.13793945 62.06713867 C-51.06151028 59.78292037 -51.03534318 57.50216202 -51.01757812 55.21679688 C-50.8340325 43.26047048 -50.8340325 43.26047048 -48.5 38.375 C-46.85 38.375 -45.2 38.375 -43.5 38.375 C-43.62375 37.1375 -43.7475 35.9 -43.875 34.625 C-43.85196227 27.3220389 -40.42651585 20.76057716 -35.70703125 15.30078125 C-25.14905884 5.61356946 -14.28595998 -0.16462694 0 0 Z M-33.5 37.375 C-34.4075 38.30699219 -35.315 39.23898438 -36.25 40.19921875 C-39.05813886 44.16278974 -39.33769633 46.88649527 -39.4375 51.625 C-39.5003418 52.70394531 -39.5003418 52.70394531 -39.56445312 53.8046875 C-39.64262373 55.6599365 -39.58110963 57.51987716 -39.5 59.375 C-38.84 60.035 -38.18 60.695 -37.5 61.375 C-37.005 60.88 -37.005 60.88 -36.5 60.375 C-29.35962506 60.14088935 -29.35962506 60.14088935 -26.6640625 60.875 C-23.6501132 61.57136374 -20.77742252 61.50669539 -17.6875 61.5 C-16.50542969 61.50257812 -15.32335937 61.50515625 -14.10546875 61.5078125 C-10.5056185 61.37520697 -7.05395953 60.94836607 -3.5 60.375 C-3.45101562 59.07046875 -3.40203125 57.7659375 -3.3515625 56.421875 C-2.99429391 47.80534867 -2.53992282 39.42826474 -0.91015625 30.94140625 C-0.28820256 27.04975317 -0.36891303 23.30760903 -0.5 19.375 C-14.20079172 17.45688916 -25.169223 27.85217686 -33.5 37.375 Z M8.5 22.375 C7.80386731 32.05870295 7.35026494 41.65885823 7.5 51.375 C12.94875692 49.55874769 15.86743316 44.28473716 18.5 39.375 C18.85884501 36.17903666 18.01805426 34.16187574 16.5 31.375 C16.11328125 30.63765625 15.7265625 29.9003125 15.328125 29.140625 C12.89157623 24.65033788 12.89157623 24.65033788 8.5 22.375 Z " fill="#CACACA" transform="translate(429.5,39.625)"/>
<path d="M0 0 C-0.54863863 6.7857936 -1.54267938 13.35009036 -3 20 C-10.38943249 20.12524462 -10.38943249 20.12524462 -13.4375 19.5 C-17.98221753 18.61322585 -22.78305604 18.52548229 -27.31945801 19.49645996 C-29.99354959 19.99878829 -32.45200235 20.15075192 -35.16992188 20.18945312 C-36.67673523 20.21452942 -36.67673523 20.21452942 -38.21398926 20.2401123 C-39.2880603 20.25368774 -40.36213135 20.26726318 -41.46875 20.28125 C-42.58181519 20.29965942 -43.69488037 20.31806885 -44.8416748 20.33703613 C-49.59699098 20.4155441 -54.35244614 20.48338229 -59.10791016 20.55224609 C-62.58242548 20.60407614 -66.05682405 20.6612851 -69.53125 20.71875 C-70.60532104 20.73232544 -71.67939209 20.74590088 -72.78601074 20.7598877 C-74.2928241 20.78496399 -74.2928241 20.78496399 -75.83007812 20.81054688 C-76.70990356 20.82307495 -77.589729 20.83560303 -78.49621582 20.84851074 C-81.07783019 21.00470905 -83.47398929 21.45918826 -86 22 C-87.73208087 22.12938918 -89.46724602 22.22150169 -91.203125 22.28125 C-92.18410156 22.31863281 -93.16507813 22.35601562 -94.17578125 22.39453125 C-95.19027344 22.42933594 -96.20476562 22.46414063 -97.25 22.5 C-103.45156241 22.71605443 -109.57445676 23.01605767 -115.73535156 23.76367188 C-120.98106294 24.31108979 -126.26698377 24.40597274 -131.53515625 24.60546875 C-132.42589844 24.64285156 -133.31664062 24.68023437 -134.234375 24.71875 C-135.42885254 24.76418945 -135.42885254 24.76418945 -136.64746094 24.81054688 C-139.00371487 24.9441557 -139.00371487 24.9441557 -141.27368164 25.51586914 C-144.98320096 26.17459367 -148.63497857 26.08300333 -152.38671875 26.02734375 C-154.06575294 26.01467035 -155.74478954 26.00231149 -157.42382812 25.99023438 C-160.03401449 25.96573583 -162.64407011 25.93806596 -165.25415039 25.90405273 C-179.94565511 25.72504275 -194.18483658 26.42903324 -208.58105469 29.58496094 C-213.71206557 30.4653322 -218.93087647 30.48004772 -224.125 30.625 C-225.27226562 30.66367187 -226.41953125 30.70234375 -227.6015625 30.7421875 C-230.40089117 30.83549846 -233.20022936 30.92128645 -236 31 C-237.01390853 28.79716302 -238.01104385 26.58901444 -239 24.375 C-239.28617187 23.75753906 -239.57234375 23.14007813 -239.8671875 22.50390625 C-241.62456037 18.52889619 -242.77586347 15.32786342 -242 11 C-239.88074177 8.36724593 -238.26164094 7.172134 -234.87060547 6.70947266 C-232.38026788 6.64136349 -229.92613931 6.70067234 -227.4375 6.8125 C-225.7488265 6.86499099 -224.06001727 6.91331794 -222.37109375 6.95703125 C-221.62786865 6.98772705 -220.88464355 7.01842285 -220.11889648 7.05004883 C-218.01397058 7.07994016 -218.01397058 7.07994016 -216.09179688 6.51098633 C-213.40657262 5.85503694 -210.92388945 5.87022147 -208.16015625 5.8671875 C-207.01353516 5.86589844 -205.86691406 5.86460937 -204.68554688 5.86328125 C-203.48994141 5.86714844 -202.29433594 5.87101562 -201.0625 5.875 C-199.90169922 5.87113281 -198.74089844 5.86726563 -197.54492188 5.86328125 C-195.80758789 5.86521484 -195.80758789 5.86521484 -194.03515625 5.8671875 C-192.9975415 5.86831543 -191.95992676 5.86944336 -190.89086914 5.87060547 C-187.55778984 5.98145017 -184.27957009 6.21517359 -180.95800781 6.49560547 C-173.8457228 7.06302089 -166.76917579 7.17895873 -159.63671875 7.203125 C-158.63883803 7.20736607 -158.63883803 7.20736607 -157.62079811 7.21169281 C-154.08256281 7.22657023 -150.5443669 7.23586512 -147.00610352 7.24023438 C-144.16091715 7.24456568 -141.31604319 7.258263 -138.47094727 7.28125 C-121.56431977 7.41507541 -104.96300405 6.85624504 -88.14227295 5.10421753 C-77.55725083 4.00619958 -67.07282091 3.49705022 -56.4375 3.375 C-54.01391183 3.33801723 -51.59045859 3.29743142 -49.16700745 3.25234985 C-47.70008269 3.22589032 -46.2330583 3.20423161 -44.76597595 3.18881226 C-40.43217461 3.12111685 -36.28163509 2.64494167 -32 2 C-30.2634035 1.8878241 -28.52465637 1.80380788 -26.78515625 1.75390625 C-25.85123047 1.72103516 -24.91730469 1.68816406 -23.95507812 1.65429688 C-22.03071516 1.59322661 -20.10622901 1.53591891 -18.18164062 1.48242188 C-13.7784445 1.32158838 -9.69978831 1.04904601 -5.43359375 -0.09765625 C-2 -1 -2 -1 0 0 Z " fill="#BD7E3E" transform="translate(501,429)"/>
<path d="M0 0 C2.30161177 1.15080588 4.53150394 2.31407051 6.75 3.625 C11.56881654 5.66373007 15.75622275 5.86691394 20.75 3.9375 C21.4925 3.628125 22.235 3.31875 23 3 C27.70222937 3.5257767 30.54359132 6.8087074 33.9765625 9.796875 C41.2400607 15.08965664 49.55145845 18.1253925 58 21 C58.90105469 21.31710937 59.80210937 21.63421875 60.73046875 21.9609375 C69.70244174 25.05472129 78.84461172 27.51787251 88 30 C88.04984062 35.22866463 88.08592606 40.45718765 88.10986328 45.68603516 C88.11985378 47.46079928 88.13345081 49.23554723 88.15087891 51.01025391 C88.36263022 73.1444938 88.36263022 73.1444938 86 78 C82.97574871 80.13012849 80.41096225 80.22745663 76.78125 80.16015625 C75.2662793 80.14275391 75.2662793 80.14275391 73.72070312 80.125 C72.65787109 80.104375 71.59503906 80.08375 70.5 80.0625 C62.26088956 79.97385446 54.18938032 79.99428663 46 81 C46.70125 80.443125 47.4025 79.88625 48.125 79.3125 C49.07375 78.549375 50.0225 77.78625 51 77 C52.6396875 75.9171875 52.6396875 75.9171875 54.3125 74.8125 C57.27157917 71.71578924 57.38132798 71.22474833 57.375 67.1875 C57.27920565 65.78935868 57.16374356 64.3918203 57 63 C51.54582933 60.95055405 46.60236289 60.60741383 40.828125 60.34375 C38 60 38 60 36 58 C34.865625 57.773125 33.73125 57.54625 32.5625 57.3125 C15.48855972 53.23698442 4.74668307 35.96166259 -4 22 C-13 7.02368988 -13 7.02368988 -13 5 C-12.31292969 4.86722656 -11.62585938 4.73445313 -10.91796875 4.59765625 C-9.56638672 4.33275391 -9.56638672 4.33275391 -8.1875 4.0625 C-7.29417969 3.88847656 -6.40085937 3.71445312 -5.48046875 3.53515625 C-2.88602829 3.02258847 -2.88602829 3.02258847 0 2 C0 1.34 0 0.68 0 0 Z " fill="#0082C9" transform="translate(128,403)"/>
<path d="M0 0 C0 4.29 0 8.58 0 13 C-14.55601805 14.91694707 -29.06237743 16.42493515 -43.72338867 17.26513672 C-49.56352761 17.61697725 -55.29218525 18.14233599 -61.078125 19.0234375 C-67.58392068 20.0057269 -73.99091596 20.38967451 -80.5625 20.5625 C-82.62641208 20.62263879 -84.69022496 20.68630975 -86.75390625 20.75390625 C-88.08917358 20.78979858 -88.08917358 20.78979858 -89.45141602 20.82641602 C-91.99638176 20.94254144 -91.99638176 20.94254144 -94.43554688 21.5 C-97.4156649 22.08104358 -100.2418015 22.17949435 -103.27734375 22.24609375 C-104.51548828 22.27896484 -105.75363281 22.31183594 -107.02929688 22.34570312 C-109.56830537 22.40534001 -112.10736731 22.4627578 -114.64648438 22.51757812 C-122.18267437 22.72188404 -129.61243965 23.22609728 -137.11328125 23.984375 C-149.83321863 25.2342003 -162.55632116 25.52814706 -175.33007812 25.74291992 C-178.65021506 25.80185359 -181.96923807 25.87646405 -185.28882217 25.95886707 C-188.48917433 26.03434881 -191.68988756 26.08817766 -194.890625 26.14453125 C-196.07996643 26.17561478 -197.26930786 26.2066983 -198.49468994 26.23872375 C-199.58473328 26.25251572 -200.67477661 26.26630768 -201.79785156 26.28051758 C-203.23720062 26.30810905 -203.23720062 26.30810905 -204.70562744 26.33625793 C-205.46277039 26.22529282 -206.21991333 26.1143277 -207 26 C-209.49118953 22.2632157 -209.2065226 20.25548181 -209.125 15.8125 C-209.10695313 14.54019531 -209.08890625 13.26789063 -209.0703125 11.95703125 C-209.04710937 10.98121094 -209.02390625 10.00539063 -209 9 C-208.45174561 8.9498877 -207.90349121 8.89977539 -207.33862305 8.84814453 C-204.78775946 8.61208728 -202.2376573 8.36856456 -199.6875 8.125 C-198.82576172 8.04636719 -197.96402344 7.96773438 -197.07617188 7.88671875 C-192.6069564 7.45474997 -188.24900934 6.88016698 -183.84838867 5.98193359 C-178.18962136 4.93867744 -172.71980948 4.68746018 -166.9765625 4.65625 C-165.93623367 4.64235229 -164.89590485 4.62845459 -163.8240509 4.61413574 C-161.58716284 4.58449072 -159.35022247 4.55859378 -157.11325073 4.53613281 C-151.12072387 4.47405962 -145.12876476 4.37844915 -139.13671875 4.28125 C-137.90021072 4.26143066 -136.6637027 4.24161133 -135.38972473 4.22119141 C-121.73274044 3.98649154 -108.08630639 3.5170811 -94.4375 3 C-93.28590393 2.9580249 -92.13430786 2.9160498 -90.94781494 2.87280273 C-87.69286668 2.75338511 -84.43821622 2.62795938 -81.18359375 2.5 C-80.22145462 2.46459106 -79.25931549 2.42918213 -78.26802063 2.3927002 C-76.93543465 2.33753235 -76.93543465 2.33753235 -75.57592773 2.28125 C-74.80836655 2.25095703 -74.04080536 2.22066406 -73.24998474 2.18945312 C-70.95273699 2.04084123 -70.95273699 2.04084123 -68.5473938 1.49525452 C-65.87123192 0.97496541 -63.39032558 0.84111515 -60.66577148 0.79467773 C-59.62376083 0.77473251 -58.58175018 0.75478729 -57.50816345 0.73423767 C-55.83156395 0.70916893 -55.83156395 0.70916893 -54.12109375 0.68359375 C-52.37651634 0.6524221 -52.37651634 0.6524221 -50.59669495 0.62062073 C-46.87702237 0.55533928 -43.15727744 0.49646768 -39.4375 0.4375 C-36.96027957 0.3942729 -34.4830659 0.35065731 -32.00585938 0.30664062 C-29.60677678 0.26527869 -27.20768837 0.22425252 -24.80859375 0.18359375 C-23.70503036 0.16485703 -22.60146698 0.1461203 -21.46446228 0.1268158 C-14.30872916 0.01388525 -7.1566302 -0.01579385 0 0 Z " fill="#BD7E3E" transform="translate(487,460)"/>
<path d="M0 0 C1.84100591 7.39675262 2.80387153 14.82661075 3.68875122 22.38623047 C5.23789364 42.41484183 5.23789364 42.41484183 10.5625 61.46484375 C12.80004768 67.20437049 12.39811049 73.32533138 12.42340088 79.39389038 C12.55264442 99.27305819 13.43500538 118.6135128 24 136 C24.33 136.66 24.66 137.32 25 138 C21.67127974 138.40435647 18.34180999 138.72411156 15 139 C13.56333984 139.11988281 13.56333984 139.11988281 12.09765625 139.2421875 C4.05254185 139.61740546 4.05254185 139.61740546 0.4375 136.75 C-3.4250643 132.39223514 -4.34757284 128.84232998 -5.375 123.125 C-6.56614371 116.76443299 -8.15751704 110.6125341 -10.03515625 104.4140625 C-12.31282754 96.35461023 -13.48500511 88.45361751 -14.3125 80.125 C-15.50581361 68.752384 -16.99508242 57.44200277 -18.625 46.125 C-18.73518463 45.35625549 -18.84536926 44.58751099 -18.95889282 43.79547119 C-20.08529798 35.53624474 -20.08529798 35.53624474 -21.55517578 27.33618164 C-22.31441579 23.34871312 -22.22559697 19.36035308 -22.25 15.3125 C-22.270625 14.44560547 -22.29125 13.57871094 -22.3125 12.68554688 C-22.32023437 11.44321289 -22.32023437 11.44321289 -22.328125 10.17578125 C-22.3374707 9.42208252 -22.34681641 8.66838379 -22.35644531 7.8918457 C-22.23881836 7.26753662 -22.12119141 6.64322754 -22 6 C-19.34505997 4.23003998 -18.0332794 3.6131607 -15.05859375 2.9296875 C-13.93614258 2.66865234 -13.93614258 2.66865234 -12.79101562 2.40234375 C-11.62602539 2.14130859 -11.62602539 2.14130859 -10.4375 1.875 C-9.65697266 1.69324219 -8.87644531 1.51148438 -8.07226562 1.32421875 C-2.30245536 0 -2.30245536 0 0 0 Z " fill="#9C6125" transform="translate(31,352)"/>
<path d="M0 0 C2.65443774 1.51174009 4.98114759 3.20182383 7.39453125 5.078125 C7.97912109 5.51801758 8.56371094 5.95791016 9.16601562 6.41113281 C23.93437844 17.54340225 23.93437844 17.54340225 29.39453125 25.078125 C29.99652344 25.90699219 30.59851563 26.73585938 31.21875 27.58984375 C38.59683499 38.43268982 41.05998985 48.6727173 40.83203125 61.703125 C40.83912109 62.85296875 40.84621094 64.0028125 40.85351562 65.1875 C40.72091584 83.09867065 31.92477219 99.43630218 19.98193359 112.52832031 C9.21350358 123.04169985 -4.66341367 126.83983446 -19.35546875 127.640625 C-35.50375809 127.44167277 -53.81485469 121.01275086 -65.7578125 110.01953125 C-77.9199068 97.2403328 -78.90031978 82.97115634 -78.51953125 66.3203125 C-77.77692568 49.66473051 -73.8564675 32.74688567 -62.0703125 20.3046875 C-56.96434318 15.69232219 -51.33497771 11.86651734 -45.60546875 8.078125 C-44.81011719 7.52640625 -44.01476562 6.9746875 -43.1953125 6.40625 C-37.72382511 2.92904306 -32.33643053 2.18869461 -25.9375 1.53515625 C-22.61247087 1.18643361 -22.61247087 1.18643361 -19.6015625 0.05859375 C-13.39814577 -1.97146831 -6.18998468 -2.1901595 0 0 Z M-61.109375 28.84375 C-68.32252965 39.61639873 -70.04154718 51.72514547 -70.14086914 64.36352539 C-70.16763048 66.61220122 -70.24259604 68.85603453 -70.31835938 71.10351562 C-70.54442961 83.71246785 -67.03440631 92.53364583 -59.29296875 102.640625 C-52.65158 109.45564483 -43.99116691 111.73875814 -35.10546875 114.390625 C-34.22745605 114.65762207 -33.34944336 114.92461914 -32.44482422 115.19970703 C-20.99425638 118.44051429 -6.0751959 118.49130945 4.83203125 113.328125 C6.03639105 112.60550912 7.22469947 111.85539578 8.39453125 111.078125 C9.02230469 110.72621094 9.65007812 110.37429687 10.296875 110.01171875 C20.69634569 103.44254816 27.83185636 89.46211406 31.39453125 78.078125 C34.87674911 62.28296686 33.14703443 47.03213008 24.58203125 33.328125 C23.54389221 31.89351075 22.48099783 30.47649586 21.39453125 29.078125 C20.85570312 28.36398438 20.316875 27.64984375 19.76171875 26.9140625 C15.65793177 21.88647932 10.95265152 17.98928284 5.76953125 14.140625 C5.1360376 13.6677002 4.50254395 13.19477539 3.84985352 12.70751953 C-18.11538906 -3.08725984 -45.74962991 10.42678946 -61.109375 28.84375 Z " fill="#040302" transform="translate(448.60546875,32.921875)"/>
<path d="M0 0 C2.6875 -0.0625 2.6875 -0.0625 6 1 C7.44428205 3.18160321 8.49834036 5.37114007 9.53125 7.7734375 C11.61119169 10.92654059 13.45924856 11.6963597 17 13 C20.98105887 13.61722537 24.99108417 13.80225289 29.01171875 13.99609375 C36.20894979 14.53388367 39.09361224 16.73479894 43.8984375 22.1328125 C44.62933594 23.11894531 44.62933594 23.11894531 45.375 24.125 C45.87773437 24.78757812 46.38046875 25.45015625 46.8984375 26.1328125 C48 28 48 28 48 31 C46.7625 31.226875 45.525 31.45375 44.25 31.6875 C41.25703813 32.45817448 40.05587017 32.95016985 37.6875 35.0625 C35.83965788 38.27911406 34.83423655 41.33643015 33.90625 44.9140625 C32.38229377 48.42178934 29.85507555 49.61909077 26.45703125 51.1328125 C25.14798828 51.62394531 25.14798828 51.62394531 23.8125 52.125 C20.65466659 53.1566776 20.65466659 53.1566776 18 55 C16.63027485 55.1327709 15.25438556 55.20329466 13.87890625 55.24609375 C13.02973633 55.27775635 12.18056641 55.30941895 11.30566406 55.34204102 C9.94779785 55.38929321 9.94779785 55.38929321 8.5625 55.4375 C1.51009744 55.726871 -5.12757161 56.2818929 -12 58 C-11.360625 56.948125 -10.72125 55.89625 -10.0625 54.8125 C-8.38245548 51.89171588 -7.41003948 49.3828257 -7 46 C-6.34 46 -5.68 46 -5 46 C-4.32926337 44.66870942 -3.6635725 43.33487594 -3 42 C-2.47563354 40.95440918 -2.47563354 40.95440918 -1.94067383 39.88769531 C1.2809184 32.77538202 1.5109507 26.47634718 1.3125 18.75 C1.29799805 17.03296875 1.29799805 17.03296875 1.28320312 15.28125 C1.21346898 10.06634883 0.94782202 5.1383688 0 0 Z " fill="#D0A073" transform="translate(292,371)"/>
<path d="M0 0 C1.71679193 -0.00067548 3.43358376 -0.00164753 5.15037537 -0.00289917 C8.71785407 -0.00436108 12.28530747 -0.00226821 15.8527832 0.00244141 C20.4188742 0.00817706 24.98490689 0.0048261 29.55099583 -0.00113106 C33.08288513 -0.00474434 36.61476059 -0.00359521 40.14665031 -0.00100327 C41.83112533 -0.00033814 43.51560162 -0.00114788 45.20007515 -0.00348282 C47.54691031 -0.00602623 49.89365043 -0.00214668 52.24047852 0.00341797 C52.92986511 0.00139374 53.61925171 -0.00063049 54.32952881 -0.00271606 C57.93887925 0.0131138 61.22865092 0.34770652 64.74609375 1.1328125 C67.41874907 1.28162759 70.07163718 1.38839402 72.74609375 1.44921875 C73.91718689 1.48052635 73.91718689 1.48052635 75.11193848 1.51246643 C77.65655854 1.57854475 80.20127363 1.63748651 82.74609375 1.6953125 C84.0458313 1.72658234 84.0458313 1.72658234 85.37182617 1.75848389 C96.99610707 2.03656775 108.61834772 2.2327527 120.24609375 2.2578125 C121.41785156 2.26240479 122.58960938 2.26699707 123.796875 2.27172852 C129.23068387 2.26165695 134.36992714 1.99273658 139.74609375 1.1328125 C142.30574617 0.97332445 144.86945055 0.86957309 147.43359375 0.8203125 C149.35751953 0.76423828 149.35751953 0.76423828 151.3203125 0.70703125 C155.24614669 1.19496275 156.35869111 2.06847545 158.74609375 5.1328125 C151.35666126 5.25805712 151.35666126 5.25805712 148.30859375 4.6328125 C143.76387622 3.74603835 138.96303771 3.65829479 134.42663574 4.62927246 C131.75254416 5.13160079 129.2940914 5.28356442 126.57617188 5.32226562 C125.06935852 5.34734192 125.06935852 5.34734192 123.53210449 5.3729248 C122.45803345 5.38650024 121.3839624 5.40007568 120.27734375 5.4140625 C119.16427856 5.43247192 118.05121338 5.45088135 116.90441895 5.46984863 C112.14910277 5.5483566 107.39364761 5.61619479 102.63818359 5.68505859 C99.16366827 5.73688864 95.6892697 5.7940976 92.21484375 5.8515625 C91.14077271 5.86513794 90.06670166 5.87871338 88.96008301 5.8927002 C87.45326965 5.91777649 87.45326965 5.91777649 85.91601562 5.94335938 C85.03619019 5.95588745 84.15636475 5.96841553 83.24987793 5.98132324 C80.66826356 6.13752155 78.27210446 6.59200076 75.74609375 7.1328125 C74.01401288 7.26220168 72.27884773 7.35431419 70.54296875 7.4140625 C69.56199219 7.45144531 68.58101562 7.48882812 67.5703125 7.52734375 C66.55582031 7.56214844 65.54132813 7.59695313 64.49609375 7.6328125 C58.29453134 7.84886693 52.17163699 8.14887017 46.01074219 8.89648438 C40.76503081 9.44390229 35.47910998 9.53878524 30.2109375 9.73828125 C29.32019531 9.77566406 28.42945313 9.81304687 27.51171875 9.8515625 C26.31724121 9.89700195 26.31724121 9.89700195 25.09863281 9.94335938 C22.74237888 10.0769682 22.74237888 10.0769682 20.47241211 10.64868164 C16.76289279 11.30740617 13.11111518 11.21581583 9.359375 11.16015625 C7.68034081 11.14748285 6.00130421 11.13512399 4.32226562 11.12304688 C1.71207926 11.09854833 -0.89797636 11.07087846 -3.50805664 11.03686523 C-18.19956136 10.85785525 -32.43874283 11.56184574 -46.83496094 14.71777344 C-51.96597182 15.5981447 -57.18478272 15.61286022 -62.37890625 15.7578125 C-64.09980469 15.81582031 -64.09980469 15.81582031 -65.85546875 15.875 C-68.65479742 15.96831096 -71.45413561 16.05409895 -74.25390625 16.1328125 C-75.24390625 13.4928125 -76.23390625 10.8528125 -77.25390625 8.1328125 C-74.66759044 4.9807401 -73.10844619 3.3001859 -69.04296875 2.50390625 C-62.26491567 1.84729203 -55.43340523 1.80061185 -48.62890625 1.6328125 C-46.54409146 1.58060675 -44.45934743 1.52708559 -42.37466431 1.46984863 C-40.46779446 1.41757036 -38.56080366 1.36975736 -36.65380859 1.32226562 C-33.05449285 1.20072573 -29.47881564 0.91356212 -25.8894043 0.62353516 C-17.25580622 -0.00889824 -8.65142484 -0.01214371 0 0 Z " fill="#9B6025" transform="translate(339.25390625,443.8671875)"/>
<path d="M0 0 C-3.96179698 9.19056456 -15.15322954 15.36650499 -24 19 C-24.969375 19.721875 -25.93875 20.44375 -26.9375 21.1875 C-30.66085083 23.38581488 -33.90212055 23.12030112 -38.16015625 22.9921875 C-46.29222881 22.85682029 -54.15863297 23.63903283 -62.21734619 24.6529541 C-77.14195719 26.51339252 -91.9516626 27.80945927 -107 28 C-107.6682782 28.00988953 -108.3365564 28.01977905 -109.02508545 28.02996826 C-113.60234036 28.09732423 -118.17934821 28.14563494 -122.75701904 28.17321777 C-124.27709717 28.18263451 -125.7971622 28.19454016 -127.31719971 28.20910645 C-129.45247153 28.22698969 -131.58731827 28.23073793 -133.72265625 28.23046875 C-135.57515991 28.23663208 -135.57515991 28.23663208 -137.46508789 28.24291992 C-141.3024453 27.97921589 -144.35503025 27.17972764 -148 26 C-148 25.34 -148 24.68 -148 24 C-147.21625 23.2575 -146.4325 22.515 -145.625 21.75 C-142.82603995 18.81775614 -142.12819527 16.81688495 -141 13 C-138.22867983 13.30859025 -135.45800014 13.6217033 -132.6875 13.9375 C-131.50897461 14.06801758 -131.50897461 14.06801758 -130.30664062 14.20117188 C-129.54931641 14.28818359 -128.79199219 14.37519531 -128.01171875 14.46484375 C-127.31522217 14.543396 -126.61872559 14.62194824 -125.90112305 14.70288086 C-124 15 -124 15 -121 16 C-114.0571586 17.04883788 -106.99896584 17.48878408 -100 18 C-98.8543457 18.08459473 -98.8543457 18.08459473 -97.68554688 18.17089844 C-63.69440048 20.29728522 -31.56534932 0 0 0 Z " fill="#DED9A7" transform="translate(475,401)"/>
<path d="M0 0 C1.84100591 7.39675262 2.80387153 14.82661075 3.68875122 22.38623047 C5.23789364 42.41484183 5.23789364 42.41484183 10.5625 61.46484375 C12.80004768 67.20437049 12.39811049 73.32533138 12.42340088 79.39389038 C12.55264442 99.27305819 13.43500538 118.6135128 24 136 C24.33 136.66 24.66 137.32 25 138 C20.05 138.33 15.1 138.66 10 139 C10.66 138.01 11.32 137.02 12 136 C12.69442714 130.04776738 11.73864833 125.83757057 9.7265625 120.20703125 C6.91437493 112.06403993 4.81098392 103.84133757 2.9375 95.4375 C2.76635681 94.67686249 2.59521362 93.91622498 2.41888428 93.13253784 C-2.11290986 72.72681587 -3.88691493 52.05956242 -5.5390625 31.2578125 C-5.61979004 30.29351318 -5.70051758 29.32921387 -5.78369141 28.33569336 C-5.92008045 26.66592819 -6.04161655 24.99482038 -6.14208984 23.32250977 C-6.58608539 17.62753542 -8.43493592 13.08016906 -11 8 C-15.79308342 7.53477707 -15.79308342 7.53477707 -19.9375 9.5 C-20.288125 9.995 -20.63875 10.49 -21 11 C-21.125 8.625 -21.125 8.625 -21 6 C-18.05777752 3.05777752 -14.44162186 2.74875854 -10.5 1.875 C-9.71496094 1.69324219 -8.92992187 1.51148438 -8.12109375 1.32421875 C-2.31643562 0 -2.31643562 0 0 0 Z " fill="#BD7E3E" transform="translate(31,352)"/>
<path d="M0 0 C1.65 0 3.3 0 5 0 C6.88266543 4.75503244 7.27939919 9.00861898 7.1875 14.0625 C7.18105469 14.80040771 7.17460937 15.53831543 7.16796875 16.29858398 C7.07695547 22.89206938 6.63922951 29.43648275 6 36 C8.84080617 33.32152561 11.28217776 30.71760243 13.5 27.5 C15.71721072 24.31363113 18.05366922 21.55865568 21 19 C21.99 19 22.98 19 24 19 C23.11074327 23.36204452 20.78544337 26.41039233 18.1875 29.9375 C17.74857422 30.54529297 17.30964844 31.15308594 16.85742188 31.77929688 C14.87225984 34.51368797 12.90535739 37.10547236 10.64453125 39.625 C8.76538038 41.865975 8.76538038 41.865975 8.96875 44.53515625 C9.1440625 45.36917969 9.319375 46.20320313 9.5 47.0625 C10.14430783 51.73199975 10.14430783 51.73199975 8.6875 54.4375 C6 56 6 56 3.78515625 56.33203125 C0.01276461 56.9539818 -2.87287852 57.46096041 -5.24121094 60.69482422 C-7.89708051 65.27876344 -9.9843994 70.10738291 -12 75 C-12.99 75 -13.98 75 -15 75 C-15.50610724 68.92671312 -14.04157942 65.22771463 -11 60 C-12.05058594 60.02320313 -13.10117187 60.04640625 -14.18359375 60.0703125 C-32.28646949 60.35492179 -32.28646949 60.35492179 -38.5625 56.375 C-40.75409495 52.75410399 -40.40612592 50.19663453 -40 46 C-38 44 -38 44 -34.125 43.8125 C-32.01518438 43.83255528 -30.21810292 43.9394842 -28.18212891 44.50439453 C-25.72597955 45.06223557 -23.53339755 45.11300852 -21.015625 45.09765625 C-20.08105469 45.09443359 -19.14648438 45.09121094 -18.18359375 45.08789062 C-16.73146484 45.07532227 -16.73146484 45.07532227 -15.25 45.0625 C-14.26644531 45.05798828 -13.28289062 45.05347656 -12.26953125 45.04882812 C-9.84629209 45.03706483 -7.42317727 45.02062684 -5 45 C-5.05220703 43.19982422 -5.05220703 43.19982422 -5.10546875 41.36328125 C-5.29036804 31.95438547 -4.96644278 22.82454333 -3.625 13.5 C-3.49891357 12.61094971 -3.37282715 11.72189941 -3.24291992 10.8059082 C-2.62130984 6.79588334 -1.96262274 3.5912251 0 0 Z " fill="#000000" transform="translate(431,55)"/>
<path d="M0 0 C7.86099334 1.57932344 15.5686396 6.39746223 21.5859375 11.51953125 C22.1634375 11.21015625 22.7409375 10.90078125 23.3359375 10.58203125 C25.43497857 9.59081741 27.33667888 9.04404324 29.5859375 8.51953125 C26.01955816 16.14520415 21.945417 21.61225361 15.66015625 27.23046875 C13.38985511 29.73592349 12.89675697 31.20021385 12.5859375 34.51953125 C11.3690625 34.31328125 10.1521875 34.10703125 8.8984375 33.89453125 C5.14282779 33.41270434 3.06118346 33.96481595 -0.4140625 35.51953125 C-5.36214627 36.00679054 -7.76827772 35.0877172 -11.7265625 32.14453125 C-12.58894531 31.51804688 -13.45132813 30.8915625 -14.33984375 30.24609375 C-16.4140625 28.51953125 -16.4140625 28.51953125 -17.4140625 26.51953125 C-18.13170776 18.4819043 -15.95109907 11.35531911 -10.8515625 5.01953125 C-7.41852505 1.4984672 -5.00229404 -0.10227739 0 0 Z " fill="#CE9E72" transform="translate(186.4140625,167.48046875)"/>
<path d="M0 0 C-6.84375447 7.28885672 -21.2080355 6.68759441 -30.63452148 7.7277832 C-36.72119754 8.42049915 -42.76146353 9.25094265 -48.796875 10.30078125 C-49.45418106 10.41466187 -50.11148712 10.52854248 -50.78871155 10.64587402 C-53.98635364 11.2039972 -57.17988419 11.77933861 -60.37084961 12.37451172 C-81.47869066 16.13322531 -81.47869066 16.13322531 -90 12 C-91.8125 10.5625 -91.8125 10.5625 -93 9 C-93 8.01 -93 7.02 -93 6 C-95.31 6 -97.62 6 -100 6 C-100 10.29 -100 14.58 -100 19 C-100.33 19 -100.66 19 -101 19 C-101 14.38 -101 9.76 -101 5 C-99.68386719 4.87882812 -98.36773437 4.75765625 -97.01171875 4.6328125 C-95.23695574 4.46378745 -93.46221746 4.29450259 -91.6875 4.125 C-90.82576172 4.04636719 -89.96402344 3.96773438 -89.07617188 3.88671875 C-84.63257019 3.45722565 -80.30325333 2.88813933 -75.9296875 1.98632812 C-69.82875254 0.86124499 -63.86766556 0.65251971 -57.67578125 0.5859375 C-56.53070602 0.56657135 -55.3856308 0.5472052 -54.20585632 0.5272522 C-50.57481106 0.46802695 -46.9437288 0.42143948 -43.3125 0.375 C-40.89647153 0.33674041 -38.48045553 0.2976843 -36.06445312 0.2578125 C-24.04262736 0.0671319 -12.02337495 -0.06241106 0 0 Z " fill="#9B6025" transform="translate(379,464)"/>
<path d="M0 0 C4.10122001 4.43254128 6.54895283 9.66091903 9.25 15 C13.07654812 22.45896326 17.08238765 29.6623665 21.63671875 36.69921875 C23 39 23 39 23 41 C21.22825181 40.91276622 19.45752623 40.80458345 17.6875 40.6875 C16.20830078 40.60048828 16.20830078 40.60048828 14.69921875 40.51171875 C11.67074013 39.93757881 10.81046813 39.43630897 9 37 C7.9464252 35.04908393 7.06145345 33.06014867 6.16015625 31.03515625 C5.06446058 28.88948169 5.06446058 28.88948169 3.10229492 27.17773438 C0.9328261 24.93041561 -0.35186912 22.87957292 -1.796875 20.12109375 C-2.28027344 19.20005859 -2.76367188 18.27902344 -3.26171875 17.33007812 C-3.75285156 16.37552734 -4.24398438 15.42097656 -4.75 14.4375 C-5.25660156 13.47908203 -5.76320313 12.52066406 -6.28515625 11.53320312 C-10 4.38888772 -10 4.38888772 -10 1 C-3.23076923 -1.61538462 -3.23076923 -1.61538462 0 0 Z " fill="#B43636" transform="translate(298,337)"/>
<path d="M0 0 C3.9375 0.6875 3.9375 0.6875 4.9375 1.6875 C5.58836498 4.81433586 5.64892629 7.56933372 4.9375 10.6875 C3.12792903 12.86242378 1.20254073 14.42606169 -1.046875 16.13671875 C-3.23109766 17.68372565 -3.23109766 17.68372565 -5.0625 20.25 C-7.46814838 23.18188396 -10.1859231 25.15877802 -13.2578125 27.35546875 C-15.1774357 28.70310049 -15.1774357 28.70310049 -17.0625 30.6875 C-20.1875 30.3125 -20.1875 30.3125 -23.0625 29.6875 C-20.99268888 18.71750104 -13.04953957 0.16623617 0 0 Z " fill="#9B6025" transform="translate(387.0625,39.3125)"/>
<path d="M0 0 C5.02317267 0.49408256 6.29156918 1.85406918 9.8125 5.375 C12.30747732 9.11746598 12.027025 10.84195138 11.40234375 15.14453125 C10.4253858 18.8388557 8.99595963 20.31901566 5.8125 22.375 C1.13607099 23.32384067 -2.12310995 23.04024378 -6.1875 20.5 C-9.66706467 16.80296253 -9.57210863 13.77889034 -9.55078125 8.859375 C-9.00683598 5.1394912 -7.10326392 3.57960199 -4.1875 1.375 C-3.1875 0.375 -3.1875 0.375 0 0 Z " fill="#070503" transform="translate(276.1875,206.625)"/>
<path d="M0 0 C0.99 0 1.98 0 3 0 C2.805875 6.97001191 -0.32854622 10.64070076 -4.6875 15.875 C-5.92370327 17.3906814 -7.15679199 18.90890849 -8.38671875 20.4296875 C-9.2981665 21.55636841 -9.2981665 21.55636841 -10.22802734 22.70581055 C-12.52597778 25.68098831 -14.55755871 28.79835244 -16.60864258 31.94628906 C-18.54866792 34.80986042 -20.72146893 37.33398613 -23 39.9375 C-26.86307403 44.41167769 -29.98902509 49.00005957 -32.74609375 54.234375 C-33.36677734 55.10835937 -33.36677734 55.10835937 -34 56 C-34.99 56 -35.98 56 -37 56 C-36.61632246 49.93392574 -35.38336793 46.16673263 -31.625 41.3125 C-31.18309326 40.71872559 -30.74118652 40.12495117 -30.28588867 39.51318359 C-24.30643234 31.58324309 -17.76581094 24.12070157 -11.1875 16.6875 C-4.39246031 9.08066383 -4.39246031 9.08066383 0 0 Z " fill="#040404" transform="translate(464,82)"/>
<path d="M0 0 C1.00065994 0.00007553 2.00131989 0.00015106 3.03230286 0.00022888 C4.10018539 0.00539017 5.16806793 0.01055145 6.26831055 0.01586914 C7.37103806 0.01728409 8.47376556 0.01869904 9.60990906 0.02015686 C13.12497696 0.02574535 16.63998071 0.0382958 20.1550293 0.05102539 C22.54109608 0.05604188 24.92716387 0.06060452 27.31323242 0.06469727 C33.1563532 0.07571102 38.99943666 0.09243775 44.8425293 0.11352539 C36.65508152 4.39608844 27.05432879 5.36439214 17.9206543 5.26196289 C17.16209137 5.2576123 16.40352844 5.25326172 15.62197876 5.2487793 C4.48028456 5.13801173 -6.65232526 4.59957219 -17.7824707 4.11352539 C-20.06110186 4.01682472 -22.33974765 3.92046837 -24.6184082 3.82446289 C-30.13160367 3.59144247 -35.64460487 3.35421204 -41.1574707 3.11352539 C-41.1574707 2.78352539 -41.1574707 2.45352539 -41.1574707 2.11352539 C-40.24457275 2.08846924 -39.3316748 2.06341309 -38.39111328 2.03759766 C-34.98979439 1.94220932 -31.58863131 1.84299137 -28.1875 1.74121094 C-26.71814302 1.69801835 -25.24874091 1.65633284 -23.77929688 1.61621094 C-21.66172715 1.55812657 -19.54438133 1.49454441 -17.42700195 1.42993164 C-16.15445557 1.39327393 -14.88190918 1.35661621 -13.57080078 1.31884766 C-10.30847036 1.20700647 -10.30847036 1.20700647 -7.76647949 0.60778809 C-5.10840198 0.10422958 -2.70267303 -0.00684221 0 0 Z " fill="#9C6126" transform="translate(426.157470703125,460.886474609375)"/>
<path d="M0 0 C3.68078741 0.61346457 4.73491219 1.58774425 7 4.5 C9.4452592 8.04562585 9.37713498 11.27608818 9 15.5 C7.9375 17.9375 7.9375 17.9375 6 19.5 C2.5 20 2.5 20 -1 19.5 C-2.9375 17.875 -2.9375 17.875 -4 15.5 C-4.1875 12.25 -4.1875 12.25 -4 9.5 C-5.32 9.5 -6.64 9.5 -8 9.5 C-7.66009204 6.44082833 -7.14301602 4.69598492 -5.3125 2.1875 C-3 0.5 -3 0.5 0 0 Z " fill="#080604" transform="translate(186,175.5)"/>
<path d="M0 0 C1 1 1 1 1.375 3.359375 C1 6 1 6 -1.125 7.703125 C-2.07375 8.21359375 -3.0225 8.7240625 -4 9.25 C-9.84367296 12.67455867 -13.82121857 16.71964868 -18 22 C-21.875 21.125 -21.875 21.125 -23 20 C-23.16402388 15.98141492 -22.8772836 14.01107413 -20.20703125 10.93359375 C-6.79171756 -1.23485774 -6.79171756 -1.23485774 0 0 Z " fill="#000407" transform="translate(104,316)"/>
<path d="M0 0 C0.99 0 1.98 0 3 0 C3.5 2.5625 3.5 2.5625 3 6 C0.6495789 8.73603706 -2.14124323 10.81818904 -5 13 C-5.70511719 13.598125 -6.41023438 14.19625 -7.13671875 14.8125 C-12.26301294 19.03070779 -12.26301294 19.03070779 -16 18.875 C-16.99 18.441875 -16.99 18.441875 -18 18 C-17.92037294 15.29267998 -17.46129431 13.52431998 -15.65625 11.47265625 C-11.9776824 8.18702655 -8.22329866 5.90354108 -3.69921875 3.95703125 C-1.65670451 2.9755471 -1.65670451 2.9755471 0 0 Z " fill="#000508" transform="translate(96,333)"/>
<path d="M0 0 C2.625 0.375 2.625 0.375 5 1 C5.33 2.32 5.66 3.64 6 5 C5.154375 5.61875 4.30875 6.2375 3.4375 6.875 C-0.97093005 10.50485291 -3.89264108 15.26541466 -7 20 C-8.32 19.67 -9.64 19.34 -11 19 C-11.5585019 16.14543473 -11.73790111 14.77079425 -11 12 C-8.30983246 8.35332845 -5.22057592 5.17988273 -2 2 C-1.34 1.34 -0.68 0.68 0 0 Z " fill="#000407" transform="translate(80,414)"/>
<path d="M0 0 C1.32 0.33 2.64 0.66 4 1 C4.39569925 7.06738846 3.25411205 12.34403994 1 18 C0.34 18.66 -0.32 19.32 -1 20 C-3.125 19.625 -3.125 19.625 -5 19 C-5.6212008 11.29711007 -3.8741903 6.6276327 0 0 Z " fill="#00070B" transform="translate(176,379)"/>
<path d="M0 0 C0.99 0 1.98 0 3 0 C2.85181987 4.39052241 2.36144496 7.09210617 -0.80078125 10.125 C-1.95570213 11.10213944 -3.12692313 12.06029195 -4.3125 13 C-4.89451172 13.50144531 -5.47652344 14.00289063 -6.07617188 14.51953125 C-7.80078125 15.9375 -7.80078125 15.9375 -11 18 C-13.19995117 17.62890625 -13.19995117 17.62890625 -15 17 C-14.91917503 14.25195094 -14.47168788 12.50947503 -12.5859375 10.47265625 C-9.73759184 8.00701783 -6.78040308 5.80521411 -3.625 3.75 C-0.92506235 2.26357381 -0.92506235 2.26357381 0 0 Z " fill="#000509" transform="translate(91,350)"/>
<path d="M0 0 C0.99 0 1.98 0 3 0 C3.4989111 5.98693319 2.20009713 9.91955383 -1 15 C-1.66 15.66 -2.32 16.32 -3 17 C-5.125 16.625 -5.125 16.625 -7 16 C-7.44360903 11.42162 -6.15344588 9.00129207 -3.6875 5.1875 C-3.07261719 4.21167969 -2.45773438 3.23585938 -1.82421875 2.23046875 C-1.22222656 1.49441406 -0.62023437 0.75835937 0 0 Z " fill="#000509" transform="translate(81,432)"/>
<path d="M0 0 C1.32 0.33 2.64 0.66 4 1 C3.58525633 6.28798182 2.64775386 9.11690718 -1 13 C-2.32 12.67 -3.64 12.34 -5 12 C-5.35338623 9.03155565 -5.5417682 6.84401782 -3.88671875 4.265625 C-2.64496832 2.79651181 -1.32662082 1.39295186 0 0 Z " fill="#000204" transform="translate(186,385)"/>
<path d="M0 0 C2.5 0.125 2.5 0.125 3.5 1.125 C3.97524752 8.49133663 3.97524752 8.49133663 2 11.125 C1.505 11.455 1.01 11.785 0.5 12.125 C-0.49 11.795 -1.48 11.465 -2.5 11.125 C-2.69406478 9.47992782 -2.88007935 7.83390406 -3.0625 6.1875 C-3.16691406 5.27097656 -3.27132812 4.35445313 -3.37890625 3.41015625 C-3.41886719 2.65605469 -3.45882812 1.90195312 -3.5 1.125 C-2.5 0.125 -2.5 0.125 0 0 Z " fill="#000306" transform="translate(195.5,391.875)"/>
<path d="M0 0 C3 1 3 1 4.203125 3.328125 C4.54859375 4.29234375 4.8940625 5.2565625 5.25 6.25 C5.78367188 7.68085938 5.78367188 7.68085938 6.328125 9.140625 C7.04467822 12.19014218 6.84919899 14.01691636 6 17 C5.67 17 5.34 17 5 17 C4.34 14.03 3.68 11.06 3 8 C0.69 7.34 -1.62 6.68 -4 6 C-2.84826645 3.53199953 -1.95216435 1.95216435 0 0 Z " fill="#007ABD" transform="translate(133,254)"/>
<path d="M0 0 C1.32 0.66 2.64 1.32 4 2 C3.69121904 5.60244452 3.00552268 6.99345998 0.625 9.8125 C-2 12 -2 12 -5 12 C-4.39246975 8.59783062 -3.04845528 6.73127371 -1 4 C-0.29485154 1.85266073 -0.29485154 1.85266073 0 0 Z " fill="#010A12" transform="translate(83,365)"/>
<path d="M0 0 C0.66 0.33 1.32 0.66 2 1 C1.30058404 4.14737182 0.23921302 7.02588876 -1 10 C-3.86724686 9.42655063 -4.8614515 9.1385485 -7 7 C-4.78071806 4.09197539 -3.07030857 2.04687238 0 0 Z " fill="#C5986D" transform="translate(212,195)"/>
<path d="M0 0 C4.95696581 1.23924145 7.11658466 2.78577758 10 7 C5.1746274 6.58639663 3.13078071 4.5780351 0 1 C0 0.67 0 0.34 0 0 Z " fill="#0078BB" transform="translate(63,478)"/>
<path d="M0 0 C0.66 0.99 1.32 1.98 2 3 C-2.51617599 3.07654536 -6.59085217 3.10228696 -11 2 C-7.36733941 -0.32490278 -4.23998354 -0.39259107 0 0 Z " fill="#885521" transform="translate(496,446)"/>
<path d="M0 0 C1.32 0.99 2.64 1.98 4 3 C3.34 3.66 2.68 4.32 2 5 C1.30251417 6.31747324 0.63040043 7.64914193 0 9 C-1.125 7.3125 -1.125 7.3125 -2 5 C-1.125 2.25 -1.125 2.25 0 0 Z " fill="#085594" transform="translate(180,386)"/>
<path d="M0 0 C3.25524265 3.02272532 5.61820737 6.25718301 8 10 C7.67 10.66 7.34 11.32 7 12 C5.82455195 10.56967163 4.65989738 9.13046758 3.5 7.6875 C2.8503125 6.88699219 2.200625 6.08648437 1.53125 5.26171875 C0 3 0 3 0 0 Z " fill="#0176B9" transform="translate(141,377)"/>
<path d="M0 0 C0.33 1.32 0.66 2.64 1 4 C-0.65 5.32 -2.3 6.64 -4 8 C-4 4.09161134 -2.49432124 2.88405893 0 0 Z " fill="#C3BF93" transform="translate(481,400)"/>
</svg>
